<svg width="1208" height="367" viewBox="0 0 1208 367" fill="none" xmlns="http://www.w3.org/2000/svg">
<path d="M118.88 28.16L90.88 62.56C85.12 56.48 80.0533 52.5867 75.68 50.88C71.4133 49.1733 67.68 48.8 64.48 49.76C61.3867 50.6133 58.7733 52.48 56.64 55.36C54.5067 58.1333 52.8 61.0133 51.52 64C50.24 66.88 49.3333 69.4933 48.8 71.84C48.2667 74.1867 48 75.36 48 75.36C48 75.5733 48.2133 76.96 48.64 79.52C49.1733 82.08 50.2933 84.96 52 88.16C53.8133 91.2533 56.32 93.5467 59.52 95.04C62.8267 96.5333 67.2533 96.32 72.8 94.4C78.4533 92.48 85.3867 87.7333 93.6 80.16L124.8 113.44C123.2 116.533 120.427 119.68 116.48 122.88C112.533 126.08 107.84 129.013 102.4 131.68C96.96 134.347 90.9867 136.533 84.48 138.24C77.9733 140.053 71.3067 141.067 64.48 141.28C57.76 141.6 51.0933 140.907 44.48 139.2C37.9733 137.493 31.9467 134.507 26.4 130.24C18.4 124.053 12.48 117.227 8.64 109.76C4.8 102.293 2.50667 94.6133 1.76 86.72C1.01333 78.8267 1.65333 70.9333 3.68 63.04C5.6 55.1467 8.32 47.7333 11.84 40.8C15.4667 33.8667 19.68 27.6267 24.48 22.08C29.3867 16.5333 34.3467 12.1067 39.36 8.8C39.36 8.8 40.4267 8.21333 42.56 7.03999C44.6933 5.86666 47.6267 4.74666 51.36 3.68C55.0933 2.50666 59.4667 1.70666 64.48 1.27999C69.6 0.746656 75.0933 1.22666 80.96 2.71999C86.9333 4.10666 93.12 6.77332 99.52 10.72C106.027 14.6667 112.48 20.48 118.88 28.16ZM214.888 124.16C208.381 128.853 201.714 132.267 194.888 134.4C188.061 136.427 180.221 137.44 171.368 137.44C164.114 137.44 157.448 136.213 151.368 133.76C145.394 131.2 140.221 127.787 135.848 123.52C131.474 119.253 128.061 114.293 125.608 108.64C123.154 102.88 121.927 96.8 121.927 90.4C121.927 82.4 123.207 75.2533 125.768 68.96C128.328 62.6667 131.794 57.3333 136.168 52.96C140.541 48.5867 145.608 45.28 151.368 43.04C157.234 40.6933 163.474 39.52 170.088 39.52C180.754 39.52 189.981 42.24 197.768 47.68C205.661 53.12 211.528 60.3733 215.368 69.44L167.528 105.44C168.701 106.08 170.248 106.507 172.168 106.72C174.088 106.933 175.848 107.04 177.448 107.04C182.354 107.04 186.461 106.187 189.768 104.48C193.181 102.667 196.274 100.533 199.048 98.08L214.888 124.16ZM180.648 71.68C179.154 69.8667 177.501 68.64 175.688 68C173.981 67.36 172.008 67.04 169.768 67.04C167.634 67.04 165.661 67.52 163.848 68.48C162.141 69.3333 160.648 70.56 159.368 72.16C158.088 73.6533 157.074 75.36 156.328 77.28C155.688 79.2 155.368 81.1733 155.368 83.2C155.368 85.12 155.474 86.5067 155.688 87.36C156.008 88.1067 156.381 88.9067 156.808 89.76L180.648 71.68ZM252.05 40.32V58.08H252.37C255.143 46.24 263.143 40.32 276.37 40.32C279.25 40.32 281.97 40.48 284.53 40.8L276.21 74.88C275.463 74.7733 274.663 74.72 273.81 74.72C273.063 74.72 271.997 74.72 270.61 74.72C266.13 74.72 262.237 76.2133 258.93 79.2C255.73 82.08 254.13 86.6667 254.13 92.96V134.08L220.53 136.96L219.57 43.2L252.05 40.32ZM288.525 45.28L324.205 42.4L322.445 134.72L288.525 137.6V45.28ZM288.365 4.79999L325.005 3.19999L323.085 31.36L288.205 33.92L288.365 4.79999ZM383.515 137.12C381.808 137.333 380.155 137.44 378.555 137.44C377.062 137.547 375.408 137.6 373.595 137.6C363.355 137.6 355.355 135.307 349.595 130.72C343.942 126.027 341.115 118.453 341.115 108V70.08L332.315 70.24L333.275 42.56H340.795V32L375.515 16.32V42.56L388.475 40.64L386.715 70.08H375.835V98.08C375.835 101.28 376.262 103.413 377.115 104.48C378.075 105.547 380.155 106.08 383.355 106.08C384.742 106.08 385.862 106.027 386.715 105.92C387.568 105.813 388.368 105.653 389.115 105.44L383.515 137.12ZM446.09 125.12H445.77C442.89 129.173 439.21 132 434.73 133.6C430.357 135.2 425.61 136 420.49 136C416.223 136 412.17 135.253 408.33 133.76C404.49 132.16 401.13 129.92 398.25 127.04C395.37 124.16 393.077 120.693 391.37 116.64C389.663 112.587 388.81 108.053 388.81 103.04C388.81 98.6667 389.663 94.6667 391.37 91.04C393.077 87.3067 395.37 84.1067 398.25 81.44C401.237 78.6667 404.703 76.5333 408.65 75.04C412.703 73.44 417.077 72.64 421.77 72.64C426.677 72.64 430.783 73.3867 434.09 74.88C437.503 76.2667 440.383 77.8667 442.73 79.68V74.88C442.73 69.9733 441.13 66.72 437.93 65.12C434.73 63.52 430.57 62.72 425.45 62.72C420.757 62.72 416.383 63.2 412.33 64.16C408.277 65.12 404.17 66.24 400.01 67.52L406.25 42.08C411.37 40.5867 416.703 39.5733 422.25 39.04C427.797 38.4 433.45 38.08 439.21 38.08C444.437 38.08 449.557 38.72 454.57 40C459.583 41.1733 463.957 43.1467 467.69 45.92C471.53 48.6933 474.57 52.2667 476.81 56.64C479.05 61.0133 480.117 66.4 480.01 72.8L478.25 133.28L446.09 136V125.12ZM425.77 95.52C422.143 96.0533 419.157 97.3333 416.81 99.36C414.463 101.28 413.45 103.467 413.77 105.92C414.197 108.373 415.69 110.24 418.25 111.52C420.917 112.693 424.33 112.96 428.49 112.32C432.65 111.68 435.743 110.347 437.77 108.32C439.797 106.293 440.597 104.107 440.17 101.76C439.85 99.7333 438.463 98.0267 436.01 96.64C433.663 95.1467 430.25 94.7733 425.77 95.52ZM645.345 113.12L620.545 141.12L581.665 112.48L581.185 139.84L542.465 135.84L539.905 10.88C560.172 8.53333 574.998 6.93333 584.385 6.07999C593.772 5.11999 598.465 4.63999 598.465 4.63999C608.492 3.57333 616.812 4.31999 623.425 6.87999C630.145 9.43999 635.212 13.1733 638.625 18.08C642.145 22.88 644.118 28.5333 644.545 35.04C645.078 41.44 644.172 48.0533 641.825 54.88C639.478 61.6 635.745 68.16 630.625 74.56C625.612 80.96 619.372 86.5067 611.905 91.2L645.345 113.12ZM579.265 46.72L577.665 72.32C581.505 71.4667 584.812 70.24 587.585 68.64C590.465 67.04 592.865 65.3333 594.785 63.52C596.705 61.7067 598.145 60 599.105 58.4C600.172 56.6933 600.812 55.36 601.025 54.4C601.025 54.2933 601.078 53.7067 601.185 52.64C601.292 51.5733 601.132 50.2933 600.705 48.8C600.385 47.3067 599.478 46.08 597.985 45.12C596.598 44.0533 594.412 43.5733 591.425 43.68C588.438 43.68 584.385 44.6933 579.265 46.72ZM697.653 125.12H697.333C694.453 129.173 690.773 132 686.293 133.6C681.919 135.2 677.173 136 672.053 136C667.786 136 663.733 135.253 659.893 133.76C656.053 132.16 652.693 129.92 649.813 127.04C646.933 124.16 644.639 120.693 642.933 116.64C641.226 112.587 640.372 108.053 640.372 103.04C640.372 98.6667 641.226 94.6667 642.933 91.04C644.639 87.3067 646.933 84.1067 649.813 81.44C652.799 78.6667 656.266 76.5333 660.213 75.04C664.266 73.44 668.639 72.64 673.333 72.64C678.239 72.64 682.346 73.3867 685.653 74.88C689.066 76.2667 691.946 77.8667 694.293 79.68V74.88C694.293 69.9733 692.693 66.72 689.493 65.12C686.293 63.52 682.133 62.72 677.013 62.72C672.319 62.72 667.946 63.2 663.893 64.16C659.839 65.12 655.733 66.24 651.573 67.52L657.813 42.08C662.933 40.5867 668.266 39.5733 673.813 39.04C679.359 38.4 685.013 38.08 690.773 38.08C695.999 38.08 701.119 38.72 706.133 40C711.146 41.1733 715.519 43.1467 719.253 45.92C723.093 48.6933 726.133 52.2667 728.373 56.64C730.613 61.0133 731.679 66.4 731.573 72.8L729.813 133.28L697.653 136V125.12ZM677.333 95.52C673.706 96.0533 670.719 97.3333 668.373 99.36C666.026 101.28 665.013 103.467 665.332 105.92C665.759 108.373 667.253 110.24 669.813 111.52C672.479 112.693 675.893 112.96 680.053 112.32C684.213 111.68 687.306 110.347 689.333 108.32C691.359 106.293 692.159 104.107 691.733 101.76C691.413 99.7333 690.026 98.0267 687.573 96.64C685.226 95.1467 681.813 94.7733 677.333 95.52ZM742.859 8.8L779.179 5.92L775.979 73.44H776.299L791.499 40.96L826.859 43.84L806.059 84.16L830.059 121.12L796.779 137.6L775.979 97.44H775.659L776.939 134.72L743.659 137.6L742.859 8.8ZM874.239 77.12L882.079 41.92L915.039 44.8L880.799 165.44L844.639 162.56L858.399 124.96L828.319 46.24L863.199 41.92L873.919 77.12H874.239ZM966.871 125.12H966.551C963.671 129.173 959.991 132 955.511 133.6C951.138 135.2 946.391 136 941.271 136C937.005 136 932.951 135.253 929.111 133.76C925.271 132.16 921.911 129.92 919.031 127.04C916.151 124.16 913.858 120.693 912.151 116.64C910.445 112.587 909.591 108.053 909.591 103.04C909.591 98.6667 910.445 94.6667 912.151 91.04C913.858 87.3067 916.151 84.1067 919.031 81.44C922.018 78.6667 925.485 76.5333 929.431 75.04C933.485 73.44 937.858 72.64 942.551 72.64C947.458 72.64 951.565 73.3867 954.871 74.88C958.285 76.2667 961.165 77.8667 963.511 79.68V74.88C963.511 69.9733 961.911 66.72 958.711 65.12C955.511 63.52 951.351 62.72 946.231 62.72C941.538 62.72 937.165 63.2 933.111 64.16C929.058 65.12 924.951 66.24 920.791 67.52L927.031 42.08C932.151 40.5867 937.485 39.5733 943.031 39.04C948.578 38.4 954.231 38.08 959.991 38.08C965.218 38.08 970.338 38.72 975.351 40C980.365 41.1733 984.738 43.1467 988.471 45.92C992.311 48.6933 995.351 52.2667 997.591 56.64C999.831 61.0133 1000.9 66.4 1000.79 72.8L999.031 133.28L966.871 136V125.12ZM946.551 95.52C942.925 96.0533 939.938 97.3333 937.591 99.36C935.245 101.28 934.231 103.467 934.551 105.92C934.978 108.373 936.471 110.24 939.031 111.52C941.698 112.693 945.111 112.96 949.271 112.32C953.431 111.68 956.525 110.347 958.551 108.32C960.578 106.293 961.378 104.107 960.951 101.76C960.631 99.7333 959.245 98.0267 956.791 96.64C954.445 95.1467 951.031 94.7733 946.551 95.52ZM1060.08 137.12C1058.37 137.333 1056.72 137.44 1055.12 137.44C1053.62 137.547 1051.97 137.6 1050.16 137.6C1039.92 137.6 1031.92 135.307 1026.16 130.72C1020.5 126.027 1017.68 118.453 1017.68 108V70.08L1008.88 70.24L1009.84 42.56H1017.36V32L1052.08 16.32V42.56L1065.04 40.64L1063.28 70.08H1052.4V98.08C1052.4 101.28 1052.82 103.413 1053.68 104.48C1054.64 105.547 1056.72 106.08 1059.92 106.08C1061.3 106.08 1062.42 106.027 1063.28 105.92C1064.13 105.813 1064.93 105.653 1065.68 105.44L1060.08 137.12Z" fill="black"/>
<path d="M230.3 208.7L278.46 201.98L274.3 292.06L313.5 283.9L315.42 328.86L231.42 337.34L230.3 208.7ZM369.272 322.94H368.952C366.072 326.993 362.392 329.82 357.912 331.42C353.538 333.02 348.792 333.82 343.672 333.82C339.405 333.82 335.352 333.073 331.512 331.58C327.672 329.98 324.312 327.74 321.432 324.86C318.552 321.98 316.258 318.513 314.552 314.46C312.845 310.407 311.992 305.873 311.992 300.86C311.992 296.487 312.845 292.487 314.552 288.86C316.258 285.127 318.552 281.927 321.432 279.26C324.418 276.487 327.885 274.353 331.832 272.86C335.885 271.26 340.258 270.46 344.952 270.46C349.858 270.46 353.965 271.207 357.272 272.7C360.685 274.087 363.565 275.687 365.912 277.5V272.7C365.912 267.793 364.312 264.54 361.112 262.94C357.912 261.34 353.752 260.54 348.632 260.54C343.938 260.54 339.565 261.02 335.512 261.98C331.458 262.94 327.352 264.06 323.192 265.34L329.432 239.9C334.552 238.407 339.885 237.393 345.432 236.86C350.978 236.22 356.632 235.9 362.392 235.9C367.618 235.9 372.738 236.54 377.752 237.82C382.765 238.993 387.138 240.967 390.872 243.74C394.712 246.513 397.752 250.087 399.992 254.46C402.232 258.833 403.298 264.22 403.192 270.62L401.432 331.1L369.272 333.82V322.94ZM348.952 293.34C345.325 293.873 342.338 295.153 339.992 297.18C337.645 299.1 336.632 301.287 336.952 303.74C337.378 306.193 338.872 308.06 341.432 309.34C344.098 310.513 347.512 310.78 351.672 310.14C355.832 309.5 358.925 308.167 360.952 306.14C362.978 304.113 363.778 301.927 363.352 299.58C363.032 297.553 361.645 295.847 359.192 294.46C356.845 292.967 353.432 292.593 348.952 293.34ZM425.198 331.26C428.931 332.54 432.665 333.607 436.398 334.46C440.238 335.313 444.185 335.74 448.238 335.74C449.945 335.74 451.651 335.633 453.358 335.42C455.065 335.207 456.611 334.727 457.998 333.98C459.385 333.34 460.505 332.433 461.358 331.26C462.211 329.98 462.638 328.327 462.638 326.3C462.638 324.273 462.105 322.62 461.038 321.34C460.078 319.953 458.691 318.887 456.878 318.14C455.171 317.287 453.198 316.753 450.958 316.54C448.718 316.22 446.425 316.06 444.078 316.06C441.305 316.06 438.478 316.487 435.598 317.34C432.718 318.087 430.051 319.1 427.598 320.38L430.638 310.78C423.598 307.367 418.105 302.727 414.158 296.86C410.318 290.887 408.398 283.687 408.398 275.26C408.398 270.887 409.198 266.407 410.798 261.82C412.505 257.127 415.118 252.86 418.638 249.02C422.158 245.18 426.638 242.033 432.078 239.58C437.518 237.127 444.025 235.9 451.598 235.9C455.438 235.9 458.798 236.167 461.678 236.7C464.558 237.233 467.278 237.927 469.838 238.78L472.558 221.98L498.158 233.02L489.838 249.34C493.251 252.647 495.811 256.487 497.518 260.86C499.331 265.127 500.238 269.713 500.238 274.62C500.238 281.34 498.851 287.1 496.078 291.9C493.411 296.593 489.411 300.7 484.078 304.22C494.531 310.087 499.758 318.94 499.758 330.78C499.758 336.433 498.531 341.447 496.078 345.82C493.625 350.3 490.105 354.033 485.518 357.02C481.038 360.007 475.598 362.247 469.198 363.74C462.905 365.34 455.865 366.14 448.078 366.14C438.691 366.14 430.905 365.34 424.718 363.74C418.531 362.14 413.518 360.7 409.678 359.42L425.198 331.26ZM456.078 286.3C459.705 285.553 462.425 284.06 464.238 281.82C466.051 279.58 466.691 277.073 466.158 274.3C465.518 271.527 463.865 269.5 461.198 268.22C458.638 266.94 455.598 266.673 452.078 267.42C448.451 268.273 445.731 269.82 443.918 272.06C442.105 274.3 441.465 276.753 441.998 279.42C442.531 282.193 444.078 284.273 446.638 285.66C449.305 286.94 452.451 287.153 456.078 286.3ZM562.445 319.74H562.125C559.992 325.607 556.632 329.767 552.045 332.22C547.565 334.673 542.285 335.9 536.205 335.9C528.205 335.9 521.699 333.553 516.685 328.86C511.779 324.06 509.325 317.127 509.325 308.06V240.86L545.005 237.98L544.045 297.18C543.939 299.74 544.472 301.607 545.645 302.78C546.925 303.847 548.845 304.38 551.405 304.38C553.539 304.38 555.245 303.847 556.525 302.78C557.912 301.713 558.552 299.9 558.445 297.34L557.485 240.86L594.285 237.98L591.885 333.18L562.445 334.46V319.74ZM653.745 208.7C673.052 204.967 687.292 202.567 696.465 201.5C705.745 200.327 710.385 199.74 710.385 199.74C719.345 198.353 727.292 198.727 734.225 200.86C741.159 202.887 747.025 206.193 751.825 210.78C756.625 215.367 760.305 220.967 762.865 227.58C765.425 234.193 766.865 241.287 767.185 248.86C767.505 256.433 766.652 264.273 764.625 272.38C762.705 280.38 759.505 288.167 755.025 295.74C750.652 303.207 744.999 310.193 738.065 316.7C731.239 323.1 723.132 328.487 713.745 332.86C713.745 332.86 712.785 333.18 710.865 333.82C709.052 334.353 705.905 334.833 701.425 335.26C697.052 335.793 691.185 336.007 683.825 335.9C676.465 335.793 667.292 335.047 656.305 333.66L653.745 208.7ZM695.025 297.34C701.105 295.953 706.012 293.873 709.745 291.1C713.585 288.22 716.465 285.287 718.385 282.3C720.305 279.207 721.639 276.167 722.385 273.18C723.239 270.193 723.665 267.847 723.665 266.14C723.665 264.327 723.665 263.367 723.665 263.26C723.665 263.047 723.505 262.033 723.185 260.22C722.865 258.3 722.172 256.06 721.105 253.5C720.039 250.94 718.545 248.86 716.625 247.26C714.705 245.553 712.092 244.86 708.785 245.18C705.479 245.5 701.425 247.58 696.625 251.42L695.025 297.34ZM818.022 322.94H817.702C814.822 326.993 811.142 329.82 806.662 331.42C802.288 333.02 797.542 333.82 792.422 333.82C788.155 333.82 784.102 333.073 780.262 331.58C776.422 329.98 773.062 327.74 770.182 324.86C767.302 321.98 765.008 318.513 763.302 314.46C761.595 310.407 760.742 305.873 760.742 300.86C760.742 296.487 761.595 292.487 763.302 288.86C765.008 285.127 767.302 281.927 770.182 279.26C773.168 276.487 776.635 274.353 780.582 272.86C784.635 271.26 789.008 270.46 793.702 270.46C798.608 270.46 802.715 271.207 806.022 272.7C809.435 274.087 812.315 275.687 814.662 277.5V272.7C814.662 267.793 813.062 264.54 809.862 262.94C806.662 261.34 802.502 260.54 797.382 260.54C792.688 260.54 788.315 261.02 784.262 261.98C780.208 262.94 776.102 264.06 771.942 265.34L778.182 239.9C783.302 238.407 788.635 237.393 794.182 236.86C799.728 236.22 805.382 235.9 811.142 235.9C816.368 235.9 821.488 236.54 826.502 237.82C831.515 238.993 835.888 240.967 839.622 243.74C843.462 246.513 846.502 250.087 848.742 254.46C850.982 258.833 852.048 264.22 851.942 270.62L850.182 331.1L818.022 333.82V322.94ZM797.702 293.34C794.075 293.873 791.088 295.153 788.742 297.18C786.395 299.1 785.382 301.287 785.702 303.74C786.128 306.193 787.622 308.06 790.182 309.34C792.848 310.513 796.262 310.78 800.422 310.14C804.582 309.5 807.675 308.167 809.702 306.14C811.728 304.113 812.528 301.927 812.102 299.58C811.782 297.553 810.395 295.847 807.942 294.46C805.595 292.967 802.182 292.593 797.702 293.34ZM949.788 321.98C943.281 326.673 936.615 330.087 929.788 332.22C922.961 334.247 915.121 335.26 906.268 335.26C899.015 335.26 892.348 334.033 886.268 331.58C880.295 329.02 875.121 325.607 870.748 321.34C866.375 317.073 862.961 312.113 860.508 306.46C858.055 300.7 856.828 294.62 856.828 288.22C856.828 280.22 858.108 273.073 860.668 266.78C863.228 260.487 866.695 255.153 871.068 250.78C875.441 246.407 880.508 243.1 886.268 240.86C892.135 238.513 898.375 237.34 904.988 237.34C915.655 237.34 924.881 240.06 932.668 245.5C940.561 250.94 946.428 258.193 950.268 267.26L902.428 303.26C903.601 303.9 905.148 304.327 907.068 304.54C908.988 304.753 910.748 304.86 912.348 304.86C917.255 304.86 921.361 304.007 924.668 302.3C928.081 300.487 931.175 298.353 933.948 295.9L949.788 321.98ZM915.548 269.5C914.055 267.687 912.401 266.46 910.588 265.82C908.881 265.18 906.908 264.86 904.668 264.86C902.535 264.86 900.561 265.34 898.748 266.3C897.041 267.153 895.548 268.38 894.268 269.98C892.988 271.473 891.975 273.18 891.228 275.1C890.588 277.02 890.268 278.993 890.268 281.02C890.268 282.94 890.375 284.327 890.588 285.18C890.908 285.927 891.281 286.727 891.708 287.58L915.548 269.5ZM986.95 238.14V255.9H987.27C990.044 244.06 998.044 238.14 1011.27 238.14C1014.15 238.14 1016.87 238.3 1019.43 238.62L1011.11 272.7C1010.36 272.593 1009.56 272.54 1008.71 272.54C1007.96 272.54 1006.9 272.54 1005.51 272.54C1001.03 272.54 997.137 274.033 993.83 277.02C990.63 279.9 989.03 284.487 989.03 290.78V331.9L955.43 334.78L954.47 241.02L986.95 238.14ZM1072.87 322.94H1072.55C1069.67 326.993 1065.99 329.82 1061.51 331.42C1057.13 333.02 1052.39 333.82 1047.27 333.82C1043 333.82 1038.95 333.073 1035.11 331.58C1031.27 329.98 1027.91 327.74 1025.03 324.86C1022.15 321.98 1019.85 318.513 1018.15 314.46C1016.44 310.407 1015.59 305.873 1015.59 300.86C1015.59 296.487 1016.44 292.487 1018.15 288.86C1019.85 285.127 1022.15 281.927 1025.03 279.26C1028.01 276.487 1031.48 274.353 1035.43 272.86C1039.48 271.26 1043.85 270.46 1048.55 270.46C1053.45 270.46 1057.56 271.207 1060.87 272.7C1064.28 274.087 1067.16 275.687 1069.51 277.5V272.7C1069.51 267.793 1067.91 264.54 1064.71 262.94C1061.51 261.34 1057.35 260.54 1052.23 260.54C1047.53 260.54 1043.16 261.02 1039.11 261.98C1035.05 262.94 1030.95 264.06 1026.79 265.34L1033.03 239.9C1038.15 238.407 1043.48 237.393 1049.03 236.86C1054.57 236.22 1060.23 235.9 1065.99 235.9C1071.21 235.9 1076.33 236.54 1081.35 237.82C1086.36 238.993 1090.73 240.967 1094.47 243.74C1098.31 246.513 1101.35 250.087 1103.59 254.46C1105.83 258.833 1106.89 264.22 1106.79 270.62L1105.03 331.1L1072.87 333.82V322.94ZM1052.55 293.34C1048.92 293.873 1045.93 295.153 1043.59 297.18C1041.24 299.1 1040.23 301.287 1040.55 303.74C1040.97 306.193 1042.47 308.06 1045.03 309.34C1047.69 310.513 1051.11 310.78 1055.27 310.14C1059.43 309.5 1062.52 308.167 1064.55 306.14C1066.57 304.113 1067.37 301.927 1066.95 299.58C1066.63 297.553 1065.24 295.847 1062.79 294.46C1060.44 292.967 1057.03 292.593 1052.55 293.34ZM1153.11 248.38H1153.43C1156.1 244.86 1159.19 242.353 1162.71 240.86C1166.23 239.26 1170.18 238.46 1174.55 238.46C1179.03 238.46 1182.98 239.26 1186.39 240.86C1189.91 242.46 1192.84 244.7 1195.19 247.58C1197.54 250.46 1199.3 253.873 1200.47 257.82C1201.75 261.66 1202.34 265.82 1202.23 270.3L1201.27 332.22L1167.51 335.1V276.7C1167.51 274.887 1166.87 273.34 1165.59 272.06C1164.31 270.78 1162.6 270.14 1160.47 270.14C1158.44 270.14 1156.68 270.78 1155.19 272.06C1153.8 273.233 1153.11 274.887 1153.11 277.02V335.26L1119.51 332.38L1118.39 206.3L1154.23 203.42L1153.11 248.38Z" fill="black"/>
<path d="M152.62 288.38C146.54 293.18 140.353 296.753 134.06 299.1C127.873 301.34 120.94 302.727 113.26 303.26C106.966 303.793 100.78 303.633 94.6997 302.78C88.6197 302.033 83.1264 300.38 78.2197 297.82C73.3131 295.153 69.2597 291.473 66.0597 286.78C62.8597 282.087 60.9931 276.113 60.4597 268.86C60.1397 264.167 60.6197 259.847 61.8997 255.9C63.1797 251.953 65.0997 248.487 67.6597 245.5C70.2197 242.407 73.2597 239.793 76.7797 237.66C80.2997 235.527 84.1397 233.873 88.2997 232.7C84.3531 229.607 81.1531 226.193 78.6997 222.46C76.3531 218.727 74.9664 214.3 74.5397 209.18C74.0064 202.887 74.9664 197.393 77.4197 192.7C79.8731 188.007 83.1797 184.113 87.3397 181.02C91.6064 177.82 96.4064 175.367 101.74 173.66C107.18 171.847 112.62 170.727 118.06 170.3C123.18 169.873 128.513 170.087 134.06 170.94C139.713 171.687 144.886 173.233 149.58 175.58C154.38 177.82 158.38 180.967 161.58 185.02C164.886 189.073 166.806 194.087 167.34 200.06C167.66 203.793 167.34 207.527 166.38 211.26C165.42 214.887 163.926 218.3 161.9 221.5C159.98 224.7 157.58 227.58 154.7 230.14C151.926 232.593 148.833 234.46 145.42 235.74L157.9 246.62C161.633 243.74 164.886 240.487 167.66 236.86C170.433 233.127 173.206 229.393 175.98 225.66L202.38 251.1L183.66 267.9L197.42 278.62L163.34 302.62L152.62 288.38ZM115.82 206.78C115.926 208.593 116.726 210.46 118.22 212.38C119.713 214.193 121.26 215.473 122.86 216.22C123.82 215.58 124.78 214.887 125.74 214.14C126.7 213.287 127.553 212.38 128.3 211.42C129.153 210.353 129.793 209.287 130.22 208.22C130.646 207.047 130.806 205.873 130.7 204.7C130.593 202.887 129.793 201.233 128.3 199.74C126.806 198.247 125.1 197.607 123.18 197.82C120.833 198.033 118.966 198.993 117.58 200.7C116.193 202.407 115.606 204.433 115.82 206.78ZM108.94 252.06C107.233 253.34 105.633 254.78 104.14 256.38C102.646 257.98 102.006 260.007 102.22 262.46C102.433 265.767 103.713 268.113 106.06 269.5C108.513 270.887 111.286 271.42 114.38 271.1C116.833 270.887 118.913 270.407 120.62 269.66C122.433 268.807 124.353 267.847 126.38 266.78L108.94 252.06Z" fill="black"/>
</svg>
