<svg width="435" height="109" viewBox="0 0 435 109" fill="none" xmlns="http://www.w3.org/2000/svg">
<g clip-path="url(#clip0_83_12078)">
<mask id="path-1-inside-1_83_12078" fill="white">
<path d="M42.0235 35.6312C43.3499 37.0911 43.4375 39.3269 42.0254 40.704C39.9034 42.7734 37.5564 44.3814 34.9843 45.528C31.443 47.1067 27.795 47.896 24.0403 47.896C20.243 47.896 16.8723 47.3413 13.9283 46.232C10.9843 45.08 8.50965 43.48 6.50432 41.432C4.49899 39.384 2.98432 36.9307 1.96032 34.072C0.936316 31.1707 0.424316 27.992 0.424316 24.536C0.424316 20.9093 1.04299 17.6453 2.28032 14.744C3.56032 11.8 5.28832 9.304 7.46432 7.256C9.64032 5.16533 12.179 3.56533 15.0803 2.456C18.0243 1.34666 21.1603 0.791992 24.4883 0.791992C26.707 0.791992 28.6696 0.983992 30.3763 1.368C32.1256 1.752 33.6616 2.264 34.9843 2.904C36.3496 3.50133 37.523 4.184 38.5043 4.952C38.5538 4.99072 38.603 5.02945 38.6518 5.06818C40.1388 6.24749 40.2834 8.37158 39.195 9.92641L34.0666 17.2527C33.3065 18.3386 31.6901 18.3959 30.5643 17.6964C30.2261 17.4862 29.8647 17.2914 29.4803 17.112C28.2003 16.5147 26.643 16.216 24.8083 16.216C23.6563 16.216 22.5896 16.408 21.6083 16.792C20.627 17.176 19.7736 17.7307 19.0483 18.456C18.3656 19.1387 17.811 19.9707 17.3843 20.952C17.0003 21.9333 16.8083 23 16.8083 24.152C16.8083 25.3467 17.0003 26.456 17.3843 27.48C17.7683 28.4613 18.323 29.336 19.0483 30.104C19.7736 30.8293 20.627 31.4053 21.6083 31.832C22.5896 32.216 23.699 32.408 24.9363 32.408C28.4578 32.408 31.4879 31.1094 34.0266 28.5122C34.4481 28.081 35.1514 28.0672 35.5569 28.5135L42.0235 35.6312ZM63.2263 33.88C63.5676 34.7333 64.0583 35.3733 64.6983 35.8C65.381 36.184 66.149 36.376 67.0023 36.376C68.1116 36.376 69.093 36.0133 69.9463 35.288C70.1927 35.0786 70.4123 34.8532 70.6054 34.6118C71.3646 33.6623 72.574 32.8882 73.724 33.2823L78.3118 34.8545C80.8833 35.7358 82.3585 38.5929 80.7832 40.8083C80.6324 41.0204 80.4761 41.2283 80.3143 41.432C79.1623 42.84 77.797 44.0347 76.2183 45.016C74.6823 45.9973 72.9756 46.7227 71.0983 47.192C69.221 47.704 67.2796 47.96 65.2743 47.96C62.7143 47.96 60.3463 47.512 58.1703 46.616C56.037 45.6773 54.181 44.3973 52.6023 42.776C51.0663 41.1547 49.8503 39.256 48.9543 37.08C48.101 34.8613 47.6743 32.4933 47.6743 29.976C47.6743 27.416 48.1436 25.0907 49.0823 23C50.021 20.9093 51.301 19.1387 52.9223 17.688C54.5863 16.2373 56.5063 15.128 58.6823 14.36C60.8583 13.5493 63.1836 13.144 65.6583 13.144C70.565 13.144 74.405 14.4453 77.1783 17.048C79.1156 18.8386 80.538 21.144 81.4454 23.9644C82.1974 26.3018 80.6333 28.6405 78.2821 29.3482L63.2263 33.88ZM66.2687 25.6542C67.2896 25.2567 67.7751 24.0076 66.8743 23.384V23.384C66.3196 22.9573 65.637 22.744 64.8263 22.744C63.6316 22.744 62.6503 23.1067 61.8823 23.832C61.157 24.5573 60.7943 25.624 60.7943 27.032V27.032C60.7943 27.4409 61.2138 27.6225 61.5948 27.4741L66.2687 25.6542ZM91.9483 47C89.7392 47 87.9483 45.2091 87.9483 43V16.04C87.9483 14.9354 88.8437 14.04 89.9483 14.04H98.9369C99.852 14.04 100.65 14.6611 100.875 15.5481L101.581 18.328C102.477 16.7067 103.671 15.448 105.165 14.552C106.658 13.6133 108.322 13.144 110.157 13.144C111.437 13.144 112.503 13.336 113.357 13.72C114.253 14.0613 114.978 14.5733 115.533 15.256C116.13 15.896 116.578 16.664 116.877 17.56C117.042 18.0573 117.182 18.581 117.295 19.1309C117.464 19.95 117.023 20.7576 116.279 21.1398L107.016 25.8994C106.455 26.1875 105.786 25.8745 105.441 25.3468C105.356 25.2168 105.264 25.0959 105.165 24.984C104.823 24.6 104.333 24.408 103.693 24.408C103.351 24.408 103.01 24.472 102.669 24.6C102.327 24.728 102.05 24.9627 101.837 25.304V45C101.837 46.1046 100.941 47 99.8368 47H91.9483ZM123.017 47C121.912 47 121.017 46.1046 121.017 45V16.04C121.017 14.9354 121.912 14.04 123.017 14.04H132.777C133.881 14.04 134.777 14.9354 134.777 16.04V45C134.777 46.1046 133.881 47 132.777 47H123.017ZM123.017 10.712C121.912 10.712 121.017 9.81657 121.017 8.712V2.79199C121.017 1.68742 121.912 0.791992 123.017 0.791992H132.777C133.881 0.791992 134.777 1.68742 134.777 2.79199V8.712C134.777 9.81657 133.881 10.712 132.777 10.712H123.017ZM160.14 46.1136C160.14 46.465 159.956 46.7942 159.629 46.924C159.19 47.0987 158.592 47.2733 157.836 47.448C156.726 47.7467 155.276 47.896 153.484 47.896C152.246 47.896 150.945 47.7253 149.58 47.384C148.214 47.0853 146.934 46.488 145.74 45.592C144.588 44.696 143.628 43.4373 142.86 41.816C142.092 40.1947 141.708 38.0613 141.708 35.416V21.144H139.548C138.957 21.144 138.494 20.6338 138.553 20.0454L138.969 15.8428C139.071 14.8196 139.931 14.04 140.959 14.04H141.964L142.246 11.0808C142.309 10.4111 142.706 9.81835 143.3 9.5033L154.06 3.8H154.724C155.276 3.8 155.724 4.24771 155.724 4.8V14.04H157.988C158.54 14.04 158.988 14.4877 158.988 15.04V19.144C158.988 20.2486 158.092 21.144 156.988 21.144H155.532V32.344C155.532 33.7947 155.788 34.9253 156.3 35.736C156.854 36.5467 157.793 36.952 159.116 36.952C159.286 36.952 159.457 36.952 159.628 36.952V36.952C159.891 36.952 160.14 37.1425 160.14 37.4053V46.1136ZM185.176 47C184.244 47 183.435 46.3556 183.227 45.4467L182.879 43.928C181.812 45.4213 180.468 46.4453 178.847 47C177.226 47.5973 175.455 47.896 173.535 47.896C171.828 47.896 170.314 47.5973 168.991 47C167.711 46.4453 166.623 45.656 165.727 44.632C164.831 43.5653 164.148 42.328 163.679 40.92C163.252 39.512 163.039 37.976 163.039 36.312C163.039 34.776 163.338 33.368 163.935 32.088C164.575 30.808 165.428 29.72 166.495 28.824C167.562 27.8853 168.778 27.16 170.143 26.648C171.508 26.136 172.938 25.88 174.431 25.88C175.924 25.88 177.29 26.1147 178.527 26.584C179.02 26.7543 179.494 26.9688 179.947 27.2274C180.721 27.6691 181.782 27.1628 181.498 26.3184C181.309 25.755 181.043 25.2462 180.703 24.792C179.978 23.768 178.719 23.256 176.927 23.256H169.391C168.286 23.256 167.391 22.3606 167.391 21.256V16.04C167.391 14.9354 168.286 14.04 169.391 14.04H177.887C181.172 14.04 183.924 14.4453 186.143 15.256C188.362 16.0667 190.132 17.2827 191.455 18.904C192.778 20.4827 193.716 22.4453 194.271 24.792C194.826 27.096 195.103 29.7413 195.103 32.728V45C195.103 46.1046 194.207 47 193.103 47H185.176ZM176.031 36.632C176.031 37.4853 176.308 38.232 176.863 38.872C177.418 39.4693 178.164 39.768 179.103 39.768C179.956 39.768 180.682 39.4693 181.279 38.872C181.919 38.232 182.239 37.4853 182.239 36.632C182.239 35.7787 181.919 35.0533 181.279 34.456C180.682 33.816 179.956 33.496 179.103 33.496C178.25 33.496 177.524 33.816 176.927 34.456C176.33 35.0533 176.031 35.7787 176.031 36.632Z"/>
</mask>
<path d="M42.0235 35.6312C43.3499 37.0911 43.4375 39.3269 42.0254 40.704C39.9034 42.7734 37.5564 44.3814 34.9843 45.528C31.443 47.1067 27.795 47.896 24.0403 47.896C20.243 47.896 16.8723 47.3413 13.9283 46.232C10.9843 45.08 8.50965 43.48 6.50432 41.432C4.49899 39.384 2.98432 36.9307 1.96032 34.072C0.936316 31.1707 0.424316 27.992 0.424316 24.536C0.424316 20.9093 1.04299 17.6453 2.28032 14.744C3.56032 11.8 5.28832 9.304 7.46432 7.256C9.64032 5.16533 12.179 3.56533 15.0803 2.456C18.0243 1.34666 21.1603 0.791992 24.4883 0.791992C26.707 0.791992 28.6696 0.983992 30.3763 1.368C32.1256 1.752 33.6616 2.264 34.9843 2.904C36.3496 3.50133 37.523 4.184 38.5043 4.952C38.5538 4.99072 38.603 5.02945 38.6518 5.06818C40.1388 6.24749 40.2834 8.37158 39.195 9.92641L34.0666 17.2527C33.3065 18.3386 31.6901 18.3959 30.5643 17.6964C30.2261 17.4862 29.8647 17.2914 29.4803 17.112C28.2003 16.5147 26.643 16.216 24.8083 16.216C23.6563 16.216 22.5896 16.408 21.6083 16.792C20.627 17.176 19.7736 17.7307 19.0483 18.456C18.3656 19.1387 17.811 19.9707 17.3843 20.952C17.0003 21.9333 16.8083 23 16.8083 24.152C16.8083 25.3467 17.0003 26.456 17.3843 27.48C17.7683 28.4613 18.323 29.336 19.0483 30.104C19.7736 30.8293 20.627 31.4053 21.6083 31.832C22.5896 32.216 23.699 32.408 24.9363 32.408C28.4578 32.408 31.4879 31.1094 34.0266 28.5122C34.4481 28.081 35.1514 28.0672 35.5569 28.5135L42.0235 35.6312ZM63.2263 33.88C63.5676 34.7333 64.0583 35.3733 64.6983 35.8C65.381 36.184 66.149 36.376 67.0023 36.376C68.1116 36.376 69.093 36.0133 69.9463 35.288C70.1927 35.0786 70.4123 34.8532 70.6054 34.6118C71.3646 33.6623 72.574 32.8882 73.724 33.2823L78.3118 34.8545C80.8833 35.7358 82.3585 38.5929 80.7832 40.8083C80.6324 41.0204 80.4761 41.2283 80.3143 41.432C79.1623 42.84 77.797 44.0347 76.2183 45.016C74.6823 45.9973 72.9756 46.7227 71.0983 47.192C69.221 47.704 67.2796 47.96 65.2743 47.96C62.7143 47.96 60.3463 47.512 58.1703 46.616C56.037 45.6773 54.181 44.3973 52.6023 42.776C51.0663 41.1547 49.8503 39.256 48.9543 37.08C48.101 34.8613 47.6743 32.4933 47.6743 29.976C47.6743 27.416 48.1436 25.0907 49.0823 23C50.021 20.9093 51.301 19.1387 52.9223 17.688C54.5863 16.2373 56.5063 15.128 58.6823 14.36C60.8583 13.5493 63.1836 13.144 65.6583 13.144C70.565 13.144 74.405 14.4453 77.1783 17.048C79.1156 18.8386 80.538 21.144 81.4454 23.9644C82.1974 26.3018 80.6333 28.6405 78.2821 29.3482L63.2263 33.88ZM66.2687 25.6542C67.2896 25.2567 67.7751 24.0076 66.8743 23.384V23.384C66.3196 22.9573 65.637 22.744 64.8263 22.744C63.6316 22.744 62.6503 23.1067 61.8823 23.832C61.157 24.5573 60.7943 25.624 60.7943 27.032V27.032C60.7943 27.4409 61.2138 27.6225 61.5948 27.4741L66.2687 25.6542ZM91.9483 47C89.7392 47 87.9483 45.2091 87.9483 43V16.04C87.9483 14.9354 88.8437 14.04 89.9483 14.04H98.9369C99.852 14.04 100.65 14.6611 100.875 15.5481L101.581 18.328C102.477 16.7067 103.671 15.448 105.165 14.552C106.658 13.6133 108.322 13.144 110.157 13.144C111.437 13.144 112.503 13.336 113.357 13.72C114.253 14.0613 114.978 14.5733 115.533 15.256C116.13 15.896 116.578 16.664 116.877 17.56C117.042 18.0573 117.182 18.581 117.295 19.1309C117.464 19.95 117.023 20.7576 116.279 21.1398L107.016 25.8994C106.455 26.1875 105.786 25.8745 105.441 25.3468C105.356 25.2168 105.264 25.0959 105.165 24.984C104.823 24.6 104.333 24.408 103.693 24.408C103.351 24.408 103.01 24.472 102.669 24.6C102.327 24.728 102.05 24.9627 101.837 25.304V45C101.837 46.1046 100.941 47 99.8368 47H91.9483ZM123.017 47C121.912 47 121.017 46.1046 121.017 45V16.04C121.017 14.9354 121.912 14.04 123.017 14.04H132.777C133.881 14.04 134.777 14.9354 134.777 16.04V45C134.777 46.1046 133.881 47 132.777 47H123.017ZM123.017 10.712C121.912 10.712 121.017 9.81657 121.017 8.712V2.79199C121.017 1.68742 121.912 0.791992 123.017 0.791992H132.777C133.881 0.791992 134.777 1.68742 134.777 2.79199V8.712C134.777 9.81657 133.881 10.712 132.777 10.712H123.017ZM160.14 46.1136C160.14 46.465 159.956 46.7942 159.629 46.924C159.19 47.0987 158.592 47.2733 157.836 47.448C156.726 47.7467 155.276 47.896 153.484 47.896C152.246 47.896 150.945 47.7253 149.58 47.384C148.214 47.0853 146.934 46.488 145.74 45.592C144.588 44.696 143.628 43.4373 142.86 41.816C142.092 40.1947 141.708 38.0613 141.708 35.416V21.144H139.548C138.957 21.144 138.494 20.6338 138.553 20.0454L138.969 15.8428C139.071 14.8196 139.931 14.04 140.959 14.04H141.964L142.246 11.0808C142.309 10.4111 142.706 9.81835 143.3 9.5033L154.06 3.8H154.724C155.276 3.8 155.724 4.24771 155.724 4.8V14.04H157.988C158.54 14.04 158.988 14.4877 158.988 15.04V19.144C158.988 20.2486 158.092 21.144 156.988 21.144H155.532V32.344C155.532 33.7947 155.788 34.9253 156.3 35.736C156.854 36.5467 157.793 36.952 159.116 36.952C159.286 36.952 159.457 36.952 159.628 36.952V36.952C159.891 36.952 160.14 37.1425 160.14 37.4053V46.1136ZM185.176 47C184.244 47 183.435 46.3556 183.227 45.4467L182.879 43.928C181.812 45.4213 180.468 46.4453 178.847 47C177.226 47.5973 175.455 47.896 173.535 47.896C171.828 47.896 170.314 47.5973 168.991 47C167.711 46.4453 166.623 45.656 165.727 44.632C164.831 43.5653 164.148 42.328 163.679 40.92C163.252 39.512 163.039 37.976 163.039 36.312C163.039 34.776 163.338 33.368 163.935 32.088C164.575 30.808 165.428 29.72 166.495 28.824C167.562 27.8853 168.778 27.16 170.143 26.648C171.508 26.136 172.938 25.88 174.431 25.88C175.924 25.88 177.29 26.1147 178.527 26.584C179.02 26.7543 179.494 26.9688 179.947 27.2274C180.721 27.6691 181.782 27.1628 181.498 26.3184C181.309 25.755 181.043 25.2462 180.703 24.792C179.978 23.768 178.719 23.256 176.927 23.256H169.391C168.286 23.256 167.391 22.3606 167.391 21.256V16.04C167.391 14.9354 168.286 14.04 169.391 14.04H177.887C181.172 14.04 183.924 14.4453 186.143 15.256C188.362 16.0667 190.132 17.2827 191.455 18.904C192.778 20.4827 193.716 22.4453 194.271 24.792C194.826 27.096 195.103 29.7413 195.103 32.728V45C195.103 46.1046 194.207 47 193.103 47H185.176ZM176.031 36.632C176.031 37.4853 176.308 38.232 176.863 38.872C177.418 39.4693 178.164 39.768 179.103 39.768C179.956 39.768 180.682 39.4693 181.279 38.872C181.919 38.232 182.239 37.4853 182.239 36.632C182.239 35.7787 181.919 35.0533 181.279 34.456C180.682 33.816 179.956 33.496 179.103 33.496C178.25 33.496 177.524 33.816 176.927 34.456C176.33 35.0533 176.031 35.7787 176.031 36.632Z" fill="black" stroke="black" stroke-opacity="0.15" stroke-width="2" mask="url(#path-1-inside-1_83_12078)"/>
<mask id="path-2-inside-2_83_12078" fill="white">
<path d="M246.121 47C245.414 47 244.759 46.6266 244.399 46.018L238.137 35.4269C237.619 34.551 236.276 34.9183 236.276 35.9359V45C236.276 46.1046 235.381 47 234.276 47H222.02C220.915 47 220.02 46.1046 220.02 45V3.688C220.02 2.58343 220.915 1.688 222.02 1.688H238.836C241.567 1.688 244.255 1.92267 246.9 2.392C249.588 2.86133 251.956 3.69333 254.004 4.888C256.095 6.04 257.78 7.59733 259.06 9.56C260.34 11.5227 260.98 13.9973 260.98 16.984C260.98 20.184 260.255 22.744 258.804 24.664C257.353 26.584 255.284 28.1413 252.596 29.336L262.648 43.8619C263.566 45.1884 262.617 47 261.004 47H246.121ZM238.836 22.424C240.5 22.424 241.865 22.104 242.932 21.464C243.999 20.824 244.532 19.7573 244.532 18.264C244.532 16.7707 243.999 15.6827 242.932 15C241.865 14.3173 240.5 13.976 238.836 13.976H237.34C236.788 13.976 236.34 14.4237 236.34 14.976V21.424C236.34 21.9763 236.788 22.424 237.34 22.424H238.836ZM287.865 47C286.932 47 286.123 46.3556 285.915 45.4468L285.567 43.928C284.5 45.4213 283.156 46.4453 281.535 47C279.913 47.5973 278.143 47.896 276.223 47.896C274.516 47.896 273.001 47.5973 271.679 47C270.399 46.4453 269.311 45.656 268.415 44.632C267.519 43.5653 266.836 42.328 266.367 40.92C265.94 39.512 265.727 37.976 265.727 36.312C265.727 34.776 266.025 33.368 266.623 32.088C267.263 30.808 268.116 29.72 269.183 28.824C270.249 27.8853 271.465 27.16 272.831 26.648C274.196 26.136 275.625 25.88 277.119 25.88C278.612 25.88 279.977 26.1147 281.215 26.584C281.709 26.7545 282.183 26.9693 282.637 27.2283C283.41 27.6702 284.471 27.1643 284.187 26.32C283.997 25.756 283.732 25.2467 283.391 24.792C282.665 23.768 281.407 23.256 279.615 23.256H272.079C270.974 23.256 270.079 22.3606 270.079 21.256V16.04C270.079 14.9354 270.974 14.04 272.079 14.04H280.575C283.86 14.04 286.612 14.4453 288.831 15.256C291.049 16.0667 292.82 17.2827 294.143 18.904C295.465 20.4827 296.404 22.4453 296.958 24.792C297.513 27.096 297.791 29.7413 297.791 32.728V45C297.791 46.1046 296.896 47 295.791 47H287.865ZM278.719 36.632C278.719 37.4853 278.996 38.232 279.551 38.872C280.105 39.4693 280.852 39.768 281.791 39.768C282.644 39.768 283.369 39.4693 283.967 38.872C284.607 38.232 284.927 37.4853 284.927 36.632C284.927 35.7787 284.607 35.0533 283.967 34.456C283.369 33.816 282.644 33.496 281.791 33.496C280.937 33.496 280.212 33.816 279.615 34.456C279.017 35.0533 278.719 35.7787 278.719 36.632ZM325.601 47C324.849 47 324.16 46.578 323.819 45.9078L318.409 35.288C318.17 34.8197 317.463 34.9894 317.463 35.515V45C317.463 46.1046 316.568 47 315.463 47H305.639C304.534 47 303.639 46.1046 303.639 45V2.79199C303.639 1.68742 304.534 0.791992 305.639 0.791992H315.463C316.568 0.791992 317.463 1.68742 317.463 2.79199V21.4002C317.463 21.8778 318.069 22.0836 318.36 21.7048L323.647 14.8217C324.025 14.3289 324.611 14.04 325.233 14.04H334.141C335.822 14.04 336.753 15.9887 335.697 17.2967L329.127 25.4303C329.001 25.5865 328.981 25.8031 329.075 25.9802L338.738 44.0572C339.45 45.3894 338.485 47 336.974 47H325.601ZM350.915 47.7962C350.915 47.1967 351.479 46.7546 352.067 46.872V46.872C352.536 46.9573 353.219 47 354.115 47C354.925 47 355.672 46.936 356.355 46.808C357.08 46.68 357.699 46.4453 358.211 46.104C358.723 45.7627 359.128 45.3147 359.427 44.76C359.725 44.1627 359.875 43.3947 359.875 42.456V42.456C359.875 42.2118 359.565 42.0914 359.387 42.2587C358.585 43.0119 357.638 43.547 356.547 43.864C355.224 44.2053 353.816 44.376 352.323 44.376C350.445 44.376 348.824 44.0133 347.459 43.288C346.093 42.5627 344.984 41.6027 344.131 40.408C343.277 39.1707 342.637 37.7413 342.211 36.12C341.827 34.4987 341.635 32.8133 341.635 31.064V16.04C341.635 14.9354 342.53 14.04 343.635 14.04H353.715C354.82 14.04 355.715 14.9354 355.715 16.04V28.696C355.715 29.8053 355.885 30.7653 356.227 31.576C356.611 32.3867 357.315 32.792 358.339 32.792C358.637 32.792 358.936 32.728 359.235 32.6C359.576 32.4293 359.832 32.1733 360.003 31.832V16.04C360.003 14.9354 360.898 14.04 362.003 14.04H371.763C372.868 14.04 373.763 14.9354 373.763 16.04V41.816C373.763 45.272 373.187 48.1093 372.035 50.328C370.883 52.5467 369.389 54.2747 367.555 55.512C365.763 56.7493 363.736 57.6027 361.475 58.072C359.256 58.5413 357.08 58.776 354.947 58.776C354.435 58.776 353.773 58.712 352.963 58.584C352.727 58.5577 352.498 58.5254 352.278 58.487C351.445 58.3419 350.915 57.5719 350.915 56.7267V47.7962ZM399.99 47C399.057 47 398.248 46.3556 398.04 45.4468L397.94 45.0111C397.844 44.5909 397.285 44.4742 396.996 44.7931C396.058 45.8242 394.946 46.5598 393.66 47C392.038 47.5973 390.268 47.896 388.348 47.896C386.641 47.896 385.126 47.5973 383.804 47C382.524 46.4453 381.436 45.656 380.54 44.632C379.644 43.5653 378.961 42.328 378.492 40.92C378.065 39.512 377.852 37.976 377.852 36.312C377.852 34.776 378.15 33.368 378.748 32.088C379.388 30.808 380.241 29.72 381.308 28.824C382.374 27.8853 383.59 27.16 384.956 26.648C386.321 26.136 387.75 25.88 389.244 25.88C390.737 25.88 392.102 26.1147 393.34 26.584C394.211 26.8846 395.019 27.3227 395.764 27.8984C396.116 28.1708 396.649 27.934 396.586 27.4931C396.436 26.4435 396.079 25.5431 395.516 24.792C394.79 23.768 393.532 23.256 391.74 23.256H384.204C383.099 23.256 382.204 22.3606 382.204 21.256V16.04C382.204 14.9354 383.099 14.04 384.204 14.04H392.7C395.985 14.04 398.737 14.4453 400.956 15.256C403.174 16.0667 404.945 17.2827 406.268 18.904C407.59 20.4827 408.529 22.4453 409.083 24.792C409.638 27.096 409.916 29.7413 409.916 32.728V45C409.916 46.1046 409.021 47 407.916 47H399.99ZM390.844 36.632C390.844 37.4853 391.121 38.232 391.676 38.872C392.23 39.4693 392.977 39.768 393.916 39.768C394.769 39.768 395.494 39.4693 396.092 38.872C396.732 38.232 397.052 37.4853 397.052 36.632C397.052 35.7787 396.732 35.0533 396.092 34.456C395.494 33.816 394.769 33.496 393.916 33.496C393.062 33.496 392.337 33.816 391.74 34.456C391.142 35.0533 390.844 35.7787 390.844 36.632ZM434.452 45.5472C434.452 46.2499 434.078 46.9005 433.407 47.1121C433.053 47.2241 432.633 47.336 432.148 47.448C431.039 47.7467 429.588 47.896 427.796 47.896C426.559 47.896 425.257 47.7253 423.892 47.384C422.527 47.0853 421.247 46.488 420.052 45.592C418.9 44.696 417.94 43.4373 417.172 41.816C416.404 40.1947 416.02 38.0613 416.02 35.416V21.144H413.86C413.269 21.144 412.807 20.6338 412.865 20.0454L413.371 14.9414C413.421 14.4298 413.852 14.04 414.366 14.04H416.276L416.66 10.008L428.372 3.8H429.036C429.588 3.8 430.036 4.24771 430.036 4.8V14.04H431.3C432.405 14.04 433.3 14.9354 433.3 16.04V20.144C433.3 20.6963 432.852 21.144 432.3 21.144H429.844V32.344C429.844 33.7947 430.1 34.9253 430.612 35.736C431.167 36.5467 432.105 36.952 433.428 36.952C433.599 36.952 433.769 36.952 433.94 36.952V36.952C434.203 36.952 434.452 37.1425 434.452 37.4053V45.5472Z"/>
</mask>
<path d="M246.121 47C245.414 47 244.759 46.6266 244.399 46.018L238.137 35.4269C237.619 34.551 236.276 34.9183 236.276 35.9359V45C236.276 46.1046 235.381 47 234.276 47H222.02C220.915 47 220.02 46.1046 220.02 45V3.688C220.02 2.58343 220.915 1.688 222.02 1.688H238.836C241.567 1.688 244.255 1.92267 246.9 2.392C249.588 2.86133 251.956 3.69333 254.004 4.888C256.095 6.04 257.78 7.59733 259.06 9.56C260.34 11.5227 260.98 13.9973 260.98 16.984C260.98 20.184 260.255 22.744 258.804 24.664C257.353 26.584 255.284 28.1413 252.596 29.336L262.648 43.8619C263.566 45.1884 262.617 47 261.004 47H246.121ZM238.836 22.424C240.5 22.424 241.865 22.104 242.932 21.464C243.999 20.824 244.532 19.7573 244.532 18.264C244.532 16.7707 243.999 15.6827 242.932 15C241.865 14.3173 240.5 13.976 238.836 13.976H237.34C236.788 13.976 236.34 14.4237 236.34 14.976V21.424C236.34 21.9763 236.788 22.424 237.34 22.424H238.836ZM287.865 47C286.932 47 286.123 46.3556 285.915 45.4468L285.567 43.928C284.5 45.4213 283.156 46.4453 281.535 47C279.913 47.5973 278.143 47.896 276.223 47.896C274.516 47.896 273.001 47.5973 271.679 47C270.399 46.4453 269.311 45.656 268.415 44.632C267.519 43.5653 266.836 42.328 266.367 40.92C265.94 39.512 265.727 37.976 265.727 36.312C265.727 34.776 266.025 33.368 266.623 32.088C267.263 30.808 268.116 29.72 269.183 28.824C270.249 27.8853 271.465 27.16 272.831 26.648C274.196 26.136 275.625 25.88 277.119 25.88C278.612 25.88 279.977 26.1147 281.215 26.584C281.709 26.7545 282.183 26.9693 282.637 27.2283C283.41 27.6702 284.471 27.1643 284.187 26.32C283.997 25.756 283.732 25.2467 283.391 24.792C282.665 23.768 281.407 23.256 279.615 23.256H272.079C270.974 23.256 270.079 22.3606 270.079 21.256V16.04C270.079 14.9354 270.974 14.04 272.079 14.04H280.575C283.86 14.04 286.612 14.4453 288.831 15.256C291.049 16.0667 292.82 17.2827 294.143 18.904C295.465 20.4827 296.404 22.4453 296.958 24.792C297.513 27.096 297.791 29.7413 297.791 32.728V45C297.791 46.1046 296.896 47 295.791 47H287.865ZM278.719 36.632C278.719 37.4853 278.996 38.232 279.551 38.872C280.105 39.4693 280.852 39.768 281.791 39.768C282.644 39.768 283.369 39.4693 283.967 38.872C284.607 38.232 284.927 37.4853 284.927 36.632C284.927 35.7787 284.607 35.0533 283.967 34.456C283.369 33.816 282.644 33.496 281.791 33.496C280.937 33.496 280.212 33.816 279.615 34.456C279.017 35.0533 278.719 35.7787 278.719 36.632ZM325.601 47C324.849 47 324.16 46.578 323.819 45.9078L318.409 35.288C318.17 34.8197 317.463 34.9894 317.463 35.515V45C317.463 46.1046 316.568 47 315.463 47H305.639C304.534 47 303.639 46.1046 303.639 45V2.79199C303.639 1.68742 304.534 0.791992 305.639 0.791992H315.463C316.568 0.791992 317.463 1.68742 317.463 2.79199V21.4002C317.463 21.8778 318.069 22.0836 318.36 21.7048L323.647 14.8217C324.025 14.3289 324.611 14.04 325.233 14.04H334.141C335.822 14.04 336.753 15.9887 335.697 17.2967L329.127 25.4303C329.001 25.5865 328.981 25.8031 329.075 25.9802L338.738 44.0572C339.45 45.3894 338.485 47 336.974 47H325.601ZM350.915 47.7962C350.915 47.1967 351.479 46.7546 352.067 46.872V46.872C352.536 46.9573 353.219 47 354.115 47C354.925 47 355.672 46.936 356.355 46.808C357.08 46.68 357.699 46.4453 358.211 46.104C358.723 45.7627 359.128 45.3147 359.427 44.76C359.725 44.1627 359.875 43.3947 359.875 42.456V42.456C359.875 42.2118 359.565 42.0914 359.387 42.2587C358.585 43.0119 357.638 43.547 356.547 43.864C355.224 44.2053 353.816 44.376 352.323 44.376C350.445 44.376 348.824 44.0133 347.459 43.288C346.093 42.5627 344.984 41.6027 344.131 40.408C343.277 39.1707 342.637 37.7413 342.211 36.12C341.827 34.4987 341.635 32.8133 341.635 31.064V16.04C341.635 14.9354 342.53 14.04 343.635 14.04H353.715C354.82 14.04 355.715 14.9354 355.715 16.04V28.696C355.715 29.8053 355.885 30.7653 356.227 31.576C356.611 32.3867 357.315 32.792 358.339 32.792C358.637 32.792 358.936 32.728 359.235 32.6C359.576 32.4293 359.832 32.1733 360.003 31.832V16.04C360.003 14.9354 360.898 14.04 362.003 14.04H371.763C372.868 14.04 373.763 14.9354 373.763 16.04V41.816C373.763 45.272 373.187 48.1093 372.035 50.328C370.883 52.5467 369.389 54.2747 367.555 55.512C365.763 56.7493 363.736 57.6027 361.475 58.072C359.256 58.5413 357.08 58.776 354.947 58.776C354.435 58.776 353.773 58.712 352.963 58.584C352.727 58.5577 352.498 58.5254 352.278 58.487C351.445 58.3419 350.915 57.5719 350.915 56.7267V47.7962ZM399.99 47C399.057 47 398.248 46.3556 398.04 45.4468L397.94 45.0111C397.844 44.5909 397.285 44.4742 396.996 44.7931C396.058 45.8242 394.946 46.5598 393.66 47C392.038 47.5973 390.268 47.896 388.348 47.896C386.641 47.896 385.126 47.5973 383.804 47C382.524 46.4453 381.436 45.656 380.54 44.632C379.644 43.5653 378.961 42.328 378.492 40.92C378.065 39.512 377.852 37.976 377.852 36.312C377.852 34.776 378.15 33.368 378.748 32.088C379.388 30.808 380.241 29.72 381.308 28.824C382.374 27.8853 383.59 27.16 384.956 26.648C386.321 26.136 387.75 25.88 389.244 25.88C390.737 25.88 392.102 26.1147 393.34 26.584C394.211 26.8846 395.019 27.3227 395.764 27.8984C396.116 28.1708 396.649 27.934 396.586 27.4931C396.436 26.4435 396.079 25.5431 395.516 24.792C394.79 23.768 393.532 23.256 391.74 23.256H384.204C383.099 23.256 382.204 22.3606 382.204 21.256V16.04C382.204 14.9354 383.099 14.04 384.204 14.04H392.7C395.985 14.04 398.737 14.4453 400.956 15.256C403.174 16.0667 404.945 17.2827 406.268 18.904C407.59 20.4827 408.529 22.4453 409.083 24.792C409.638 27.096 409.916 29.7413 409.916 32.728V45C409.916 46.1046 409.021 47 407.916 47H399.99ZM390.844 36.632C390.844 37.4853 391.121 38.232 391.676 38.872C392.23 39.4693 392.977 39.768 393.916 39.768C394.769 39.768 395.494 39.4693 396.092 38.872C396.732 38.232 397.052 37.4853 397.052 36.632C397.052 35.7787 396.732 35.0533 396.092 34.456C395.494 33.816 394.769 33.496 393.916 33.496C393.062 33.496 392.337 33.816 391.74 34.456C391.142 35.0533 390.844 35.7787 390.844 36.632ZM434.452 45.5472C434.452 46.2499 434.078 46.9005 433.407 47.1121C433.053 47.2241 432.633 47.336 432.148 47.448C431.039 47.7467 429.588 47.896 427.796 47.896C426.559 47.896 425.257 47.7253 423.892 47.384C422.527 47.0853 421.247 46.488 420.052 45.592C418.9 44.696 417.94 43.4373 417.172 41.816C416.404 40.1947 416.02 38.0613 416.02 35.416V21.144H413.86C413.269 21.144 412.807 20.6338 412.865 20.0454L413.371 14.9414C413.421 14.4298 413.852 14.04 414.366 14.04H416.276L416.66 10.008L428.372 3.8H429.036C429.588 3.8 430.036 4.24771 430.036 4.8V14.04H431.3C432.405 14.04 433.3 14.9354 433.3 16.04V20.144C433.3 20.6963 432.852 21.144 432.3 21.144H429.844V32.344C429.844 33.7947 430.1 34.9253 430.612 35.736C431.167 36.5467 432.105 36.952 433.428 36.952C433.599 36.952 433.769 36.952 433.94 36.952V36.952C434.203 36.952 434.452 37.1425 434.452 37.4053V45.5472Z" fill="black" stroke="black" stroke-opacity="0.1" stroke-width="2" mask="url(#path-2-inside-2_83_12078)"/>
<path d="M22.52 97C21.4155 97 20.52 96.1046 20.52 95V53.688C20.52 52.5834 21.4155 51.688 22.52 51.688H35.416C36.5206 51.688 37.416 52.5834 37.416 53.688V82.42C37.416 82.6961 37.6399 82.92 37.916 82.92H52.568C53.6726 82.92 54.568 83.8154 54.568 84.92V95C54.568 96.1046 53.6726 97 52.568 97H22.52ZM80.239 97C79.3066 97 78.4979 96.3556 78.2896 95.4467L77.9415 93.928C76.8748 95.4213 75.5308 96.4453 73.9095 97C72.2882 97.5973 70.5175 97.896 68.5975 97.896C66.8908 97.896 65.3762 97.5973 64.0535 97C62.7735 96.4453 61.6855 95.656 60.7895 94.632C59.8935 93.5653 59.2108 92.328 58.7415 90.92C58.3148 89.512 58.1015 87.976 58.1015 86.312C58.1015 84.776 58.4002 83.368 58.9975 82.088C59.6375 80.808 60.4908 79.72 61.5575 78.824C62.6242 77.8853 63.8402 77.16 65.2055 76.648C66.5708 76.136 68.0002 75.88 69.4935 75.88C70.9868 75.88 72.3522 76.1147 73.5895 76.584C74.4608 76.8844 75.2686 77.3224 76.0129 77.8979C76.3654 78.1703 76.8987 77.9335 76.8356 77.4925C76.6855 76.4432 76.3288 75.543 75.7655 74.792C75.0402 73.768 73.7815 73.256 71.9895 73.256H64.4535C63.3489 73.256 62.4535 72.3606 62.4535 71.256V66.04C62.4535 64.9354 63.3489 64.04 64.4535 64.04H72.9495C76.2348 64.04 78.9868 64.4453 81.2055 65.256C83.4242 66.0667 85.1948 67.2827 86.5175 68.904C87.8402 70.4827 88.7788 72.4453 89.3335 74.792C89.8882 77.096 90.1655 79.7413 90.1655 82.728V95C90.1655 96.1046 89.2701 97 88.1655 97H80.239ZM71.0935 86.632C71.0935 87.4853 71.3708 88.232 71.9255 88.872C72.4802 89.4693 73.2268 89.768 74.1655 89.768C75.0188 89.768 75.7442 89.4693 76.3415 88.872C76.9815 88.232 77.3015 87.4853 77.3015 86.632C77.3015 85.7787 76.9815 85.0533 76.3415 84.456C75.7442 83.816 75.0188 83.496 74.1655 83.496C73.3122 83.496 72.5868 83.816 71.9895 84.456C71.3922 85.0533 71.0935 85.7787 71.0935 86.632ZM103.005 98.6175C103.005 97.5903 103.966 96.7791 104.989 96.872V96.872C105.97 96.9573 107.314 97 109.021 97C109.832 97 110.578 96.936 111.261 96.808C111.944 96.68 112.541 96.4453 113.053 96.104C113.565 95.7627 113.97 95.3147 114.269 94.76C114.568 94.1627 114.717 93.3947 114.717 92.456V92.456C114.717 92.2117 114.407 92.0914 114.229 92.2587C113.428 93.0119 112.481 93.547 111.389 93.864C110.066 94.2053 108.658 94.376 107.165 94.376C105.373 94.376 103.688 94.0347 102.109 93.352C100.53 92.6693 99.1437 91.7093 97.949 90.472C96.7543 89.2347 95.7943 87.7413 95.069 85.992C94.3863 84.2 94.045 82.216 94.045 80.04C94.045 77.3947 94.4503 75.0267 95.261 72.936C96.1143 70.8453 97.2877 69.0747 98.781 67.624C100.317 66.1733 102.109 65.064 104.157 64.296C106.248 63.528 108.552 63.144 111.069 63.144C113.117 63.144 115.037 63.5493 116.829 64.36C118.664 65.128 120.264 66.1307 121.629 67.368L126.877 64.04V64.04C127.831 64.04 128.605 64.8136 128.605 65.768V91.816C128.605 95.272 128.029 98.1093 126.877 100.328C125.725 102.547 124.232 104.275 122.397 105.512C120.605 106.749 118.578 107.603 116.317 108.072C114.098 108.541 111.922 108.776 109.789 108.776C108.637 108.776 107.698 108.755 106.973 108.712C106.248 108.669 105.629 108.605 105.117 108.52C104.648 108.477 104.242 108.413 103.901 108.328V108.328C103.364 108.251 103.005 107.762 103.005 107.219V98.6175ZM111.517 83.496C112.712 83.496 113.65 83.0053 114.333 82.024C115.058 81 115.421 79.784 115.421 78.376C115.421 76.968 115.058 75.7733 114.333 74.792C113.65 73.768 112.712 73.256 111.517 73.256C110.28 73.256 109.32 73.768 108.637 74.792C107.997 75.7733 107.677 76.968 107.677 78.376C107.677 79.784 107.997 81 108.637 82.024C109.32 83.0053 110.28 83.496 111.517 83.496ZM154.339 97C153.951 97 153.599 96.7763 153.434 96.4258L152.68 94.824C151.826 95.8053 150.781 96.552 149.544 97.064C148.306 97.6187 146.728 97.896 144.808 97.896C143.613 97.896 142.418 97.704 141.224 97.32C140.029 96.936 138.941 96.3173 137.96 95.464C137.021 94.6107 136.253 93.48 135.656 92.072C135.058 90.664 134.76 88.9573 134.76 86.952V66.04C134.76 64.9354 135.655 64.04 136.76 64.04H146.264C147.369 64.04 148.264 64.9354 148.264 66.04V82.6C148.264 83.7093 148.434 84.6693 148.776 85.48C149.16 86.248 149.864 86.632 150.888 86.632C151.144 86.632 151.421 86.568 151.72 86.44C152.061 86.2693 152.338 86.0133 152.552 85.672V66.04C152.552 64.9354 153.447 64.04 154.552 64.04H164.44C165.545 64.04 166.44 64.9354 166.44 66.04V95C166.44 96.1046 165.545 97 164.44 97H154.339Z" fill="black"/>
<path d="M78.4289 93.8163L78.1806 92.733L77.5347 93.6374C76.524 95.0521 75.2631 96.0084 73.7477 96.5269L73.7476 96.5268L73.7367 96.5308C72.1765 97.1056 70.4651 97.396 68.5975 97.396C66.9494 97.396 65.507 97.1077 64.2593 96.5443L64.2593 96.5442L64.2523 96.5412C63.0401 96.0159 62.0144 95.2714 61.1691 94.3065C60.3192 93.2936 59.6681 92.1161 59.218 90.7683C58.8086 89.4148 58.6015 87.9305 58.6015 86.312C58.6015 84.8451 58.8859 83.5121 59.4478 82.3055C60.0577 81.0876 60.8679 80.0563 61.8791 79.2068L61.8792 79.2069L61.8878 79.1993C62.9078 78.3018 64.071 77.6074 65.3811 77.1162C66.6889 76.6257 68.0587 76.38 69.4935 76.38C70.9339 76.38 72.2383 76.6063 73.4122 77.0515L73.4193 77.0542L73.4265 77.0567C74.2452 77.339 75.005 77.7506 75.7071 78.2934C76.0412 78.5517 76.465 78.5704 76.7941 78.4146C77.135 78.2532 77.3972 77.887 77.3306 77.4217C77.1704 76.3025 76.7871 75.3228 76.1696 74.4974C75.3141 73.2943 73.8666 72.756 71.9895 72.756H64.4535C63.6251 72.756 62.9535 72.0844 62.9535 71.256V66.04C62.9535 65.2116 63.6251 64.54 64.4535 64.54H72.9495C76.1975 64.54 78.8871 64.9412 81.0339 65.7256C83.1793 66.5095 84.8713 67.6771 86.1301 69.2201L86.1343 69.2251C87.399 70.7347 88.3071 72.6232 88.8469 74.907L88.8474 74.909C89.3909 77.1663 89.6655 79.771 89.6655 82.728V95C89.6655 95.8284 88.9939 96.5 88.1655 96.5H80.239C79.5397 96.5 78.9331 96.0167 78.7769 95.3351L78.4289 93.8163ZM71.5477 89.1995L71.5533 89.206L71.5591 89.2122C72.2231 89.9272 73.1109 90.268 74.1655 90.268C75.1499 90.268 76.0029 89.9177 76.6951 89.2255C77.4225 88.4981 77.8015 87.6266 77.8015 86.632C77.8015 85.6418 77.4254 84.7893 76.6953 84.1023C76.0082 83.3722 75.1557 82.996 74.1655 82.996C73.1725 82.996 72.318 83.3743 71.6299 84.1085C70.9418 84.7995 70.5935 85.6505 70.5935 86.632C70.5935 87.6046 70.9135 88.4678 71.5477 89.1995ZM114.709 94.9972L114.713 94.9906L114.716 94.9838C115.061 94.2945 115.217 93.4426 115.217 92.456C115.217 92.0965 114.982 91.841 114.724 91.7384C114.469 91.6371 114.135 91.6602 113.886 91.8944C113.146 92.59 112.273 93.0857 111.257 93.3817C109.98 93.7103 108.617 93.876 107.165 93.876C105.438 93.876 103.821 93.5475 102.307 92.893C100.789 92.2366 99.4576 91.3145 98.3087 90.1247C97.1632 88.9383 96.237 87.5015 95.5336 85.8071C94.877 84.0808 94.545 82.1605 94.545 80.04C94.545 77.4474 94.9419 75.1436 95.7256 73.1209C96.5544 71.0915 97.6893 69.3823 99.127 67.985C100.612 66.5833 102.345 65.5098 104.331 64.7648C106.36 64.0199 108.604 63.644 111.069 63.644C113.049 63.644 114.898 64.0354 116.623 64.8155L116.629 64.8185L116.636 64.8212C118.423 65.569 119.974 66.5422 121.293 67.7384L121.575 67.9941L121.897 67.7902L127.011 64.5472C127.626 64.6139 128.105 65.135 128.105 65.768V91.816C128.105 95.2208 127.537 97.972 126.433 100.098L126.877 100.328L126.433 100.098C125.315 102.252 123.875 103.913 122.118 105.097L122.113 105.101C120.379 106.297 118.415 107.126 116.215 107.582L116.214 107.583C114.026 108.045 111.885 108.276 109.789 108.276C108.642 108.276 107.714 108.255 107.003 108.213C106.289 108.171 105.688 108.108 105.199 108.027L105.181 108.024L105.163 108.022C104.711 107.981 104.331 107.92 104.022 107.843L103.901 108.328L103.972 107.833C103.722 107.797 103.505 107.557 103.505 107.219V98.6175C103.505 97.9089 104.189 97.3013 104.944 97.3699L104.989 96.872L104.946 97.3701C105.948 97.4572 107.308 97.5 109.021 97.5C109.858 97.5 110.635 97.434 111.353 97.2994C112.094 97.1606 112.756 96.9031 113.33 96.52C113.912 96.1321 114.372 95.622 114.709 94.9972ZM108.221 74.5145L108.218 74.5188C107.515 75.5965 107.177 76.8908 107.177 78.376C107.177 79.8619 107.516 81.1731 108.213 82.289L108.22 82.2995L108.227 82.3096C109.007 83.4307 110.123 83.996 111.517 83.996C112.875 83.996 113.966 83.4254 114.743 82.3109C115.533 81.1928 115.921 79.8735 115.921 78.376C115.921 76.8825 115.535 75.5827 114.742 74.5045C113.97 73.3532 112.881 72.756 111.517 72.756C110.114 72.756 108.997 73.3507 108.221 74.5145ZM153.132 94.6111L152.806 93.9175L152.303 94.4957C151.501 95.417 150.52 96.1187 149.353 96.602L149.346 96.6048L149.34 96.6077C148.187 97.1242 146.685 97.396 144.808 97.396C143.667 97.396 142.524 97.2129 141.377 96.844L141.377 96.844C140.25 96.482 139.223 95.8989 138.292 95.0903C137.418 94.295 136.69 93.2296 136.116 91.8768L136.116 91.8765C135.551 90.5465 135.26 88.9102 135.26 86.952V66.04C135.26 65.2116 135.932 64.54 136.76 64.54H146.264C147.092 64.54 147.764 65.2116 147.764 66.04V82.6C147.764 83.7589 147.941 84.7881 148.315 85.6743L148.322 85.6892L148.329 85.7036C148.563 86.1721 148.905 86.5385 149.353 86.7829C149.796 87.0246 150.315 87.132 150.888 87.132C151.227 87.132 151.572 87.0473 151.917 86.8996L151.93 86.8938L151.944 86.8871C152.372 86.6729 152.716 86.3517 152.976 85.9376L153.052 85.8158V85.672V66.04C153.052 65.2116 153.724 64.54 154.552 64.54H164.44C165.268 64.54 165.94 65.2116 165.94 66.04V95C165.94 95.8284 165.268 96.5 164.44 96.5H154.339C154.145 96.5 153.969 96.3881 153.886 96.2129L153.132 94.6111ZM21.02 95V53.688C21.02 52.8596 21.6916 52.188 22.52 52.188H35.416C36.2444 52.188 36.916 52.8596 36.916 53.688V82.42C36.916 82.9723 37.3637 83.42 37.916 83.42H52.568C53.3964 83.42 54.068 84.0916 54.068 84.92V95C54.068 95.8284 53.3964 96.5 52.568 96.5H22.52C21.6916 96.5 21.02 95.8284 21.02 95Z" stroke="black" stroke-opacity="0.1"/>
<mask id="path-5-inside-3_83_12078" fill="white">
<path d="M194.895 97C193.238 97 191.895 95.6568 191.895 94V54.688C191.895 53.0311 193.238 51.688 194.895 51.688H214.871C218.028 51.688 220.972 52.0293 223.703 52.712C226.476 53.3947 228.866 54.5467 230.871 56.168C232.919 57.7467 234.519 59.8587 235.671 62.504C236.866 65.1067 237.463 68.3493 237.463 72.232C237.463 76.0293 236.78 79.464 235.415 82.536C234.092 85.5653 232.236 88.1467 229.847 90.28C227.5 92.4133 224.684 94.0773 221.399 95.272C218.114 96.424 214.53 97 210.647 97H194.895ZM211.607 82.344C214.423 82.344 216.706 81.576 218.455 80.04C220.204 78.504 221.079 76.1147 221.079 72.872C221.079 72.0187 220.972 71.144 220.759 70.248C220.546 69.352 220.183 68.5413 219.671 67.816C219.159 67.0907 218.455 66.4933 217.559 66.024C216.706 65.5547 215.618 65.32 214.295 65.32H210.663C209.558 65.32 208.663 66.2154 208.663 67.32V80.344C208.663 81.4486 209.558 82.344 210.663 82.344H211.607ZM261.74 97C260.807 97 259.998 96.3556 259.79 95.4468L259.442 93.928C258.375 95.4213 257.031 96.4453 255.41 97C253.788 97.5973 252.018 97.896 250.098 97.896C248.391 97.896 246.876 97.5973 245.554 97C244.274 96.4453 243.186 95.656 242.29 94.632C241.394 93.5653 240.711 92.328 240.242 90.92C239.815 89.512 239.602 87.976 239.602 86.312C239.602 84.776 239.9 83.368 240.498 82.088C241.138 80.808 241.991 79.72 243.058 78.824C244.124 77.8853 245.34 77.16 246.706 76.648C248.071 76.136 249.5 75.88 250.994 75.88C252.487 75.88 253.852 76.1147 255.09 76.584C255.584 76.7545 256.058 76.9693 256.512 77.2283C257.285 77.6702 258.346 77.1643 258.062 76.32C257.872 75.756 257.607 75.2467 257.266 74.792C256.54 73.768 255.282 73.256 253.49 73.256H245.954C244.849 73.256 243.954 72.3606 243.954 71.256V66.04C243.954 64.9354 244.849 64.04 245.954 64.04H254.45C257.735 64.04 260.487 64.4453 262.706 65.256C264.924 66.0667 266.695 67.2827 268.018 68.904C269.34 70.4827 270.279 72.4453 270.833 74.792C271.388 77.096 271.666 79.7413 271.666 82.728V95C271.666 96.1046 270.771 97 269.666 97H261.74ZM252.594 86.632C252.594 87.4853 252.871 88.232 253.426 88.872C253.98 89.4693 254.727 89.768 255.666 89.768C256.519 89.768 257.244 89.4693 257.842 88.872C258.482 88.232 258.802 87.4853 258.802 86.632C258.802 85.7787 258.482 85.0533 257.842 84.456C257.244 83.816 256.519 83.496 255.666 83.496C254.812 83.496 254.087 83.816 253.49 84.456C252.892 85.0533 252.594 85.7787 252.594 86.632ZM291.289 83.88C291.63 84.7333 292.121 85.3733 292.761 85.8C293.444 86.184 294.212 86.376 295.065 86.376C296.174 86.376 297.156 86.0133 298.009 85.288V85.288C299.316 84.1771 301.059 83.0329 302.681 83.5889L308.226 85.4888C309.768 86.0175 310.636 87.7029 309.872 89.1438C309.44 89.9578 308.942 90.7205 308.377 91.432C307.225 92.84 305.86 94.0347 304.281 95.016C302.745 95.9973 301.038 96.7227 299.161 97.192C297.284 97.704 295.342 97.96 293.337 97.96C290.777 97.96 288.409 97.512 286.233 96.616C284.1 95.6773 282.244 94.3973 280.665 92.776C279.129 91.1547 277.913 89.256 277.017 87.08C276.164 84.8613 275.737 82.4933 275.737 79.976C275.737 77.416 276.206 75.0907 277.145 73C278.084 70.9093 279.364 69.1387 280.985 67.688C282.649 66.2373 284.569 65.128 286.745 64.36C288.921 63.5493 291.246 63.144 293.721 63.144C298.628 63.144 302.468 64.4453 305.241 67.048C307.542 69.1744 309.116 72.027 309.964 75.6059C310.304 77.0395 309.388 78.4323 307.977 78.8569L291.289 83.88ZM294.331 75.6542C295.352 75.2568 295.838 74.0072 294.937 73.384V73.384C294.382 72.9573 293.7 72.744 292.889 72.744C291.694 72.744 290.713 73.1067 289.945 73.832C289.22 74.5573 288.857 75.624 288.857 77.032V77.032C288.857 77.4407 289.277 77.6224 289.657 77.4742L294.331 75.6542ZM316.011 97V64.04H328.555L329.643 68.328C330.539 66.7067 331.734 65.448 333.227 64.552C334.72 63.6133 336.384 63.144 338.219 63.144C339.499 63.144 340.566 63.336 341.419 63.72C342.315 64.0613 343.04 64.5733 343.595 65.256C344.192 65.896 344.64 66.664 344.939 67.56C345.238 68.456 345.451 69.4373 345.579 70.504L333.995 76.456C333.824 75.8587 333.568 75.368 333.227 74.984C332.886 74.6 332.395 74.408 331.755 74.408C331.414 74.408 331.072 74.472 330.731 74.6C330.39 74.728 330.112 74.9627 329.899 75.304V97H316.011ZM366.49 97C365.557 97 364.748 96.3556 364.54 95.4468L364.192 93.928C363.125 95.4213 361.781 96.4453 360.16 97C358.538 97.5973 356.768 97.896 354.848 97.896C353.141 97.896 351.626 97.5973 350.304 97C349.024 96.4453 347.936 95.656 347.04 94.632C346.144 93.5653 345.461 92.328 344.992 90.92C344.565 89.512 344.352 87.976 344.352 86.312C344.352 84.776 344.65 83.368 345.248 82.088C345.888 80.808 346.741 79.72 347.808 78.824C348.874 77.8853 350.09 77.16 351.456 76.648C352.821 76.136 354.25 75.88 355.744 75.88C357.237 75.88 358.602 76.1147 359.84 76.584C360.334 76.7545 360.808 76.9693 361.262 77.2283C362.035 77.6702 363.096 77.1643 362.812 76.32C362.622 75.756 362.357 75.2467 362.016 74.792C361.29 73.768 360.032 73.256 358.24 73.256H350.704C349.599 73.256 348.704 72.3606 348.704 71.256V66.04C348.704 64.9354 349.599 64.04 350.704 64.04H359.2C362.485 64.04 365.237 64.4453 367.456 65.256C369.674 66.0667 371.445 67.2827 372.768 68.904C374.09 70.4827 375.029 72.4453 375.583 74.792C376.138 77.096 376.416 79.7413 376.416 82.728V95C376.416 96.1046 375.521 97 374.416 97H366.49ZM357.344 86.632C357.344 87.4853 357.621 88.232 358.176 88.872C358.73 89.4693 359.477 89.768 360.416 89.768C361.269 89.768 361.994 89.4693 362.592 88.872C363.232 88.232 363.552 87.4853 363.552 86.632C363.552 85.7787 363.232 85.0533 362.592 84.456C361.994 83.816 361.269 83.496 360.416 83.496C359.562 83.496 358.837 83.816 358.24 84.456C357.642 85.0533 357.344 85.7787 357.344 86.632ZM402.44 97C401.335 97 400.44 96.1046 400.44 95V78.44C400.44 77.3307 400.248 76.392 399.864 75.624C399.523 74.8133 398.84 74.408 397.816 74.408C397.56 74.408 397.261 74.472 396.92 74.6C396.621 74.728 396.365 74.9627 396.152 75.304V95C396.152 96.1046 395.257 97 394.152 97H384.264C383.159 97 382.264 96.1046 382.264 95V52.792C382.264 51.6874 383.159 50.792 384.264 50.792H394.152C395.257 50.792 396.152 51.6874 396.152 52.792V63.476C396.152 64.3066 397.127 64.7982 397.859 64.4072C398.299 64.1726 398.754 63.9649 399.224 63.784C400.333 63.3573 401.656 63.144 403.192 63.144C404.515 63.144 405.816 63.3787 407.096 63.848C408.419 64.2747 409.571 64.936 410.552 65.832C411.576 66.728 412.387 67.8587 412.984 69.224C413.624 70.5893 413.944 72.1893 413.944 74.024V95C413.944 96.1046 413.049 97 411.944 97H402.44Z"/>
</mask>
<path d="M194.895 97C193.238 97 191.895 95.6568 191.895 94V54.688C191.895 53.0311 193.238 51.688 194.895 51.688H214.871C218.028 51.688 220.972 52.0293 223.703 52.712C226.476 53.3947 228.866 54.5467 230.871 56.168C232.919 57.7467 234.519 59.8587 235.671 62.504C236.866 65.1067 237.463 68.3493 237.463 72.232C237.463 76.0293 236.78 79.464 235.415 82.536C234.092 85.5653 232.236 88.1467 229.847 90.28C227.5 92.4133 224.684 94.0773 221.399 95.272C218.114 96.424 214.53 97 210.647 97H194.895ZM211.607 82.344C214.423 82.344 216.706 81.576 218.455 80.04C220.204 78.504 221.079 76.1147 221.079 72.872C221.079 72.0187 220.972 71.144 220.759 70.248C220.546 69.352 220.183 68.5413 219.671 67.816C219.159 67.0907 218.455 66.4933 217.559 66.024C216.706 65.5547 215.618 65.32 214.295 65.32H210.663C209.558 65.32 208.663 66.2154 208.663 67.32V80.344C208.663 81.4486 209.558 82.344 210.663 82.344H211.607ZM261.74 97C260.807 97 259.998 96.3556 259.79 95.4468L259.442 93.928C258.375 95.4213 257.031 96.4453 255.41 97C253.788 97.5973 252.018 97.896 250.098 97.896C248.391 97.896 246.876 97.5973 245.554 97C244.274 96.4453 243.186 95.656 242.29 94.632C241.394 93.5653 240.711 92.328 240.242 90.92C239.815 89.512 239.602 87.976 239.602 86.312C239.602 84.776 239.9 83.368 240.498 82.088C241.138 80.808 241.991 79.72 243.058 78.824C244.124 77.8853 245.34 77.16 246.706 76.648C248.071 76.136 249.5 75.88 250.994 75.88C252.487 75.88 253.852 76.1147 255.09 76.584C255.584 76.7545 256.058 76.9693 256.512 77.2283C257.285 77.6702 258.346 77.1643 258.062 76.32C257.872 75.756 257.607 75.2467 257.266 74.792C256.54 73.768 255.282 73.256 253.49 73.256H245.954C244.849 73.256 243.954 72.3606 243.954 71.256V66.04C243.954 64.9354 244.849 64.04 245.954 64.04H254.45C257.735 64.04 260.487 64.4453 262.706 65.256C264.924 66.0667 266.695 67.2827 268.018 68.904C269.34 70.4827 270.279 72.4453 270.833 74.792C271.388 77.096 271.666 79.7413 271.666 82.728V95C271.666 96.1046 270.771 97 269.666 97H261.74ZM252.594 86.632C252.594 87.4853 252.871 88.232 253.426 88.872C253.98 89.4693 254.727 89.768 255.666 89.768C256.519 89.768 257.244 89.4693 257.842 88.872C258.482 88.232 258.802 87.4853 258.802 86.632C258.802 85.7787 258.482 85.0533 257.842 84.456C257.244 83.816 256.519 83.496 255.666 83.496C254.812 83.496 254.087 83.816 253.49 84.456C252.892 85.0533 252.594 85.7787 252.594 86.632ZM291.289 83.88C291.63 84.7333 292.121 85.3733 292.761 85.8C293.444 86.184 294.212 86.376 295.065 86.376C296.174 86.376 297.156 86.0133 298.009 85.288V85.288C299.316 84.1771 301.059 83.0329 302.681 83.5889L308.226 85.4888C309.768 86.0175 310.636 87.7029 309.872 89.1438C309.44 89.9578 308.942 90.7205 308.377 91.432C307.225 92.84 305.86 94.0347 304.281 95.016C302.745 95.9973 301.038 96.7227 299.161 97.192C297.284 97.704 295.342 97.96 293.337 97.96C290.777 97.96 288.409 97.512 286.233 96.616C284.1 95.6773 282.244 94.3973 280.665 92.776C279.129 91.1547 277.913 89.256 277.017 87.08C276.164 84.8613 275.737 82.4933 275.737 79.976C275.737 77.416 276.206 75.0907 277.145 73C278.084 70.9093 279.364 69.1387 280.985 67.688C282.649 66.2373 284.569 65.128 286.745 64.36C288.921 63.5493 291.246 63.144 293.721 63.144C298.628 63.144 302.468 64.4453 305.241 67.048C307.542 69.1744 309.116 72.027 309.964 75.6059C310.304 77.0395 309.388 78.4323 307.977 78.8569L291.289 83.88ZM294.331 75.6542C295.352 75.2568 295.838 74.0072 294.937 73.384V73.384C294.382 72.9573 293.7 72.744 292.889 72.744C291.694 72.744 290.713 73.1067 289.945 73.832C289.22 74.5573 288.857 75.624 288.857 77.032V77.032C288.857 77.4407 289.277 77.6224 289.657 77.4742L294.331 75.6542ZM316.011 97V64.04H328.555L329.643 68.328C330.539 66.7067 331.734 65.448 333.227 64.552C334.72 63.6133 336.384 63.144 338.219 63.144C339.499 63.144 340.566 63.336 341.419 63.72C342.315 64.0613 343.04 64.5733 343.595 65.256C344.192 65.896 344.64 66.664 344.939 67.56C345.238 68.456 345.451 69.4373 345.579 70.504L333.995 76.456C333.824 75.8587 333.568 75.368 333.227 74.984C332.886 74.6 332.395 74.408 331.755 74.408C331.414 74.408 331.072 74.472 330.731 74.6C330.39 74.728 330.112 74.9627 329.899 75.304V97H316.011ZM366.49 97C365.557 97 364.748 96.3556 364.54 95.4468L364.192 93.928C363.125 95.4213 361.781 96.4453 360.16 97C358.538 97.5973 356.768 97.896 354.848 97.896C353.141 97.896 351.626 97.5973 350.304 97C349.024 96.4453 347.936 95.656 347.04 94.632C346.144 93.5653 345.461 92.328 344.992 90.92C344.565 89.512 344.352 87.976 344.352 86.312C344.352 84.776 344.65 83.368 345.248 82.088C345.888 80.808 346.741 79.72 347.808 78.824C348.874 77.8853 350.09 77.16 351.456 76.648C352.821 76.136 354.25 75.88 355.744 75.88C357.237 75.88 358.602 76.1147 359.84 76.584C360.334 76.7545 360.808 76.9693 361.262 77.2283C362.035 77.6702 363.096 77.1643 362.812 76.32C362.622 75.756 362.357 75.2467 362.016 74.792C361.29 73.768 360.032 73.256 358.24 73.256H350.704C349.599 73.256 348.704 72.3606 348.704 71.256V66.04C348.704 64.9354 349.599 64.04 350.704 64.04H359.2C362.485 64.04 365.237 64.4453 367.456 65.256C369.674 66.0667 371.445 67.2827 372.768 68.904C374.09 70.4827 375.029 72.4453 375.583 74.792C376.138 77.096 376.416 79.7413 376.416 82.728V95C376.416 96.1046 375.521 97 374.416 97H366.49ZM357.344 86.632C357.344 87.4853 357.621 88.232 358.176 88.872C358.73 89.4693 359.477 89.768 360.416 89.768C361.269 89.768 361.994 89.4693 362.592 88.872C363.232 88.232 363.552 87.4853 363.552 86.632C363.552 85.7787 363.232 85.0533 362.592 84.456C361.994 83.816 361.269 83.496 360.416 83.496C359.562 83.496 358.837 83.816 358.24 84.456C357.642 85.0533 357.344 85.7787 357.344 86.632ZM402.44 97C401.335 97 400.44 96.1046 400.44 95V78.44C400.44 77.3307 400.248 76.392 399.864 75.624C399.523 74.8133 398.84 74.408 397.816 74.408C397.56 74.408 397.261 74.472 396.92 74.6C396.621 74.728 396.365 74.9627 396.152 75.304V95C396.152 96.1046 395.257 97 394.152 97H384.264C383.159 97 382.264 96.1046 382.264 95V52.792C382.264 51.6874 383.159 50.792 384.264 50.792H394.152C395.257 50.792 396.152 51.6874 396.152 52.792V63.476C396.152 64.3066 397.127 64.7982 397.859 64.4072C398.299 64.1726 398.754 63.9649 399.224 63.784C400.333 63.3573 401.656 63.144 403.192 63.144C404.515 63.144 405.816 63.3787 407.096 63.848C408.419 64.2747 409.571 64.936 410.552 65.832C411.576 66.728 412.387 67.8587 412.984 69.224C413.624 70.5893 413.944 72.1893 413.944 74.024V95C413.944 96.1046 413.049 97 411.944 97H402.44Z" fill="black" stroke="black" stroke-opacity="0.1" stroke-width="2" mask="url(#path-5-inside-3_83_12078)"/>
</g>
<defs>
<clipPath id="clip0_83_12078">
<rect width="435" height="109" fill="white"/>
</clipPath>
</defs>
</svg>
