<svg width="303" height="101" viewBox="0 0 303 101" fill="none" xmlns="http://www.w3.org/2000/svg">
<path d="M28.76 33.48C27.08 35.56 25.1333 37.0933 22.92 38.08C20.7067 39.0667 18.4267 39.56 16.08 39.56C13.7067 39.56 11.6 39.2133 9.76 38.52C7.92 37.8 6.37333 36.8 5.12 35.52C3.86667 34.24 2.92 32.7067 2.28 30.92C1.64 29.1067 1.32 27.12 1.32 24.96C1.32 22.6933 1.70667 20.6533 2.48 18.84C3.28 17 4.36 15.44 5.72 14.16C7.08 12.8533 8.66667 11.8533 10.48 11.16C12.32 10.4667 14.28 10.12 16.36 10.12C17.7467 10.12 18.9733 10.24 20.04 10.48C21.1333 10.72 22.0933 11.04 22.92 11.44C23.7733 11.8133 24.5067 12.24 25.12 12.72C25.7333 13.2 26.2667 13.68 26.72 14.16L21.4 21.76C20.92 21.1733 20.28 20.6933 19.48 20.32C18.68 19.9467 17.7067 19.76 16.56 19.76C15.84 19.76 15.1733 19.88 14.56 20.12C13.9467 20.36 13.4133 20.7067 12.96 21.16C12.5333 21.5867 12.1867 22.1067 11.92 22.72C11.68 23.3333 11.56 24 11.56 24.72C11.56 25.4667 11.68 26.16 11.92 26.8C12.16 27.4133 12.5067 27.96 12.96 28.44C13.4133 28.8933 13.9467 29.2533 14.56 29.52C15.1733 29.76 15.8667 29.88 16.64 29.88C19.0667 29.88 21.12 28.8933 22.8 26.92L28.76 33.48ZM40.5713 30.8C40.7846 31.3333 41.0913 31.7333 41.4913 32C41.9179 32.24 42.3979 32.36 42.9313 32.36C43.6246 32.36 44.2379 32.1333 44.7713 31.68C45.3046 31.2267 45.6379 30.6533 45.7713 29.96L52.8913 32.4C52.5179 33.5733 51.9713 34.6133 51.2513 35.52C50.5313 36.4 49.6779 37.1467 48.6913 37.76C47.7313 38.3733 46.6646 38.8267 45.4913 39.12C44.3179 39.44 43.1046 39.6 41.8513 39.6C40.2513 39.6 38.7713 39.32 37.4113 38.76C36.0779 38.1733 34.9179 37.3733 33.9313 36.36C32.9713 35.3467 32.2113 34.16 31.6513 32.8C31.1179 31.4133 30.8512 29.9333 30.8512 28.36C30.8512 26.76 31.1446 25.3067 31.7313 24C32.3179 22.6933 33.1179 21.5867 34.1313 20.68C35.1713 19.7733 36.3713 19.08 37.7313 18.6C39.0913 18.0933 40.5446 17.84 42.0913 17.84C45.1579 17.84 47.5579 18.6533 49.2913 20.28C51.0513 21.9067 52.1313 24.2133 52.5313 27.2L40.5713 30.8ZM43.6513 25.2C43.4646 24.8 43.1979 24.48 42.8513 24.24C42.5046 23.9733 42.0779 23.84 41.5713 23.84C40.8246 23.84 40.2113 24.0667 39.7313 24.52C39.2779 24.9733 39.0513 25.64 39.0513 26.52C39.0513 26.7067 39.0779 26.8533 39.1313 26.96L43.6513 25.2ZM56.0225 39V18.4H63.8625L64.5425 21.08C65.1025 20.0667 65.8492 19.28 66.7825 18.72C67.7158 18.1333 68.7558 17.84 69.9025 17.84C70.7025 17.84 71.3692 17.96 71.9025 18.2C72.4625 18.4133 72.9158 18.7333 73.2625 19.16C73.6358 19.56 73.9158 20.04 74.1025 20.6C74.2892 21.16 74.4225 21.7733 74.5025 22.44L67.2625 26.16C67.1558 25.7867 66.9958 25.48 66.7825 25.24C66.5692 25 66.2625 24.88 65.8625 24.88C65.6492 24.88 65.4358 24.92 65.2225 25C65.0092 25.08 64.8358 25.2267 64.7025 25.44V39H56.0225ZM76.6903 39V18.4H85.2903V39H76.6903ZM76.6903 16.32V10.12H85.2903V16.32H76.6903ZM101.142 38.8C100.875 38.96 100.395 39.12 99.7019 39.28C99.0085 39.4667 98.1019 39.56 96.9819 39.56C96.2085 39.56 95.3952 39.4533 94.5419 39.24C93.6885 39.0533 92.8885 38.68 92.1419 38.12C91.4219 37.56 90.8219 36.7733 90.3419 35.76C89.8619 34.7467 89.6219 33.4133 89.6219 31.76V22.84H87.5819L88.0219 18.4H89.7819L90.0219 15.88L97.3419 12H98.3819V18.4H100.422V22.84H98.2619V29.84C98.2619 30.7467 98.4219 31.4533 98.7419 31.96C99.0885 32.4667 99.6752 32.72 100.502 32.72C100.609 32.72 100.715 32.72 100.822 32.72C100.929 32.72 101.035 32.7067 101.142 32.68V38.8ZM115.794 39L115.354 37.08C114.687 38.0133 113.847 38.6533 112.834 39C111.821 39.3733 110.714 39.56 109.514 39.56C108.447 39.56 107.501 39.3733 106.674 39C105.874 38.6533 105.194 38.16 104.634 37.52C104.074 36.8533 103.647 36.08 103.354 35.2C103.087 34.32 102.954 33.36 102.954 32.32C102.954 31.36 103.141 30.48 103.514 29.68C103.914 28.88 104.447 28.2 105.114 27.64C105.781 27.0533 106.541 26.6 107.394 26.28C108.247 25.96 109.141 25.8 110.074 25.8C111.007 25.8 111.861 25.9467 112.634 26.24C113.407 26.5067 114.101 26.9467 114.714 27.56C114.714 26.5733 114.474 25.76 113.994 25.12C113.541 24.48 112.754 24.16 111.634 24.16H105.674V18.4H112.234C114.287 18.4 116.007 18.6533 117.394 19.16C118.781 19.6667 119.887 20.4267 120.714 21.44C121.541 22.4267 122.127 23.6533 122.474 25.12C122.821 26.56 122.994 28.2133 122.994 30.08V39H115.794ZM111.074 32.52C111.074 33.0533 111.247 33.52 111.594 33.92C111.941 34.2933 112.407 34.48 112.994 34.48C113.527 34.48 113.981 34.2933 114.354 33.92C114.754 33.52 114.954 33.0533 114.954 32.52C114.954 31.9867 114.754 31.5333 114.354 31.16C113.981 30.76 113.527 30.56 112.994 30.56C112.461 30.56 112.007 30.76 111.634 31.16C111.261 31.5333 111.074 31.9867 111.074 32.52ZM154.167 39L148.727 29.8V39H138.567V10.68H150.327C152.034 10.68 153.714 10.8267 155.367 11.12C157.047 11.4133 158.527 11.9333 159.807 12.68C161.114 13.4 162.167 14.3733 162.967 15.6C163.767 16.8267 164.167 18.3733 164.167 20.24C164.167 22.24 163.714 23.84 162.807 25.04C161.901 26.24 160.607 27.2133 158.927 27.96L166.567 39H154.167ZM150.327 23.64C151.367 23.64 152.221 23.44 152.887 23.04C153.554 22.64 153.887 21.9733 153.887 21.04C153.887 20.1067 153.554 19.4267 152.887 19C152.221 18.5733 151.367 18.36 150.327 18.36H148.767V23.64H150.327ZM179.974 39L179.534 37.08C178.867 38.0133 178.027 38.6533 177.014 39C176 39.3733 174.894 39.56 173.694 39.56C172.627 39.56 171.68 39.3733 170.854 39C170.054 38.6533 169.374 38.16 168.814 37.52C168.254 36.8533 167.827 36.08 167.534 35.2C167.267 34.32 167.134 33.36 167.134 32.32C167.134 31.36 167.32 30.48 167.694 29.68C168.094 28.88 168.627 28.2 169.294 27.64C169.96 27.0533 170.72 26.6 171.574 26.28C172.427 25.96 173.32 25.8 174.254 25.8C175.187 25.8 176.04 25.9467 176.814 26.24C177.587 26.5067 178.28 26.9467 178.894 27.56C178.894 26.5733 178.654 25.76 178.174 25.12C177.72 24.48 176.934 24.16 175.814 24.16H169.854V18.4H176.414C178.467 18.4 180.187 18.6533 181.574 19.16C182.96 19.6667 184.067 20.4267 184.894 21.44C185.72 22.4267 186.307 23.6533 186.654 25.12C187 26.56 187.174 28.2133 187.174 30.08V39H179.974ZM175.254 32.52C175.254 33.0533 175.427 33.52 175.774 33.92C176.12 34.2933 176.587 34.48 177.174 34.48C177.707 34.48 178.16 34.2933 178.534 33.92C178.934 33.52 179.134 33.0533 179.134 32.52C179.134 31.9867 178.934 31.5333 178.534 31.16C178.16 30.76 177.707 30.56 177.174 30.56C176.64 30.56 176.187 30.76 175.814 31.16C175.44 31.5333 175.254 31.9867 175.254 32.52ZM203.789 39L199.469 30.52V39H190.829V10.12H199.469V23.92L203.709 18.4H212.509L206.629 25.68L213.749 39H203.789ZM220.376 38.76C220.59 38.8133 220.83 38.8667 221.096 38.92C221.39 38.9733 221.816 39 222.376 39C222.883 39 223.35 38.96 223.776 38.88C224.23 38.8 224.616 38.6533 224.936 38.44C225.256 38.2267 225.51 37.9467 225.696 37.6C225.883 37.2267 225.976 36.7467 225.976 36.16V35.72C225.416 36.36 224.723 36.8 223.896 37.04C223.07 37.2533 222.19 37.36 221.256 37.36C220.083 37.36 219.07 37.1333 218.216 36.68C217.363 36.2267 216.67 35.6267 216.136 34.88C215.603 34.1067 215.203 33.2133 214.936 32.2C214.696 31.1867 214.576 30.1333 214.576 29.04V18.4H223.376V27.56C223.376 28.2533 223.483 28.8533 223.696 29.36C223.936 29.8667 224.376 30.12 225.016 30.12C225.203 30.12 225.39 30.08 225.576 30C225.79 29.8933 225.95 29.7333 226.056 29.52V18.4H234.656V35.76C234.656 37.92 234.296 39.6933 233.576 41.08C232.856 42.4667 231.923 43.5467 230.776 44.32C229.656 45.0933 228.39 45.6267 226.976 45.92C225.59 46.2133 224.23 46.36 222.896 46.36C222.576 46.36 222.163 46.32 221.656 46.24C221.176 46.1867 220.75 46.0933 220.376 45.96V38.76ZM250.052 39L249.612 37.08C248.945 38.0133 248.105 38.6533 247.092 39C246.079 39.3733 244.972 39.56 243.772 39.56C242.705 39.56 241.759 39.3733 240.932 39C240.132 38.6533 239.452 38.16 238.892 37.52C238.332 36.8533 237.905 36.08 237.612 35.2C237.345 34.32 237.212 33.36 237.212 32.32C237.212 31.36 237.399 30.48 237.772 29.68C238.172 28.88 238.705 28.2 239.372 27.64C240.039 27.0533 240.799 26.6 241.652 26.28C242.505 25.96 243.399 25.8 244.332 25.8C245.265 25.8 246.119 25.9467 246.892 26.24C247.665 26.5067 248.359 26.9467 248.972 27.56C248.972 26.5733 248.732 25.76 248.252 25.12C247.799 24.48 247.012 24.16 245.892 24.16H239.932V18.4H246.492C248.545 18.4 250.265 18.6533 251.652 19.16C253.039 19.6667 254.145 20.4267 254.972 21.44C255.799 22.4267 256.385 23.6533 256.732 25.12C257.079 26.56 257.252 28.2133 257.252 30.08V39H250.052ZM245.332 32.52C245.332 33.0533 245.505 33.52 245.852 33.92C246.199 34.2933 246.665 34.48 247.252 34.48C247.785 34.48 248.239 34.2933 248.612 33.92C249.012 33.52 249.212 33.0533 249.212 32.52C249.212 31.9867 249.012 31.5333 248.612 31.16C248.239 30.76 247.785 30.56 247.252 30.56C246.719 30.56 246.265 30.76 245.892 31.16C245.519 31.5333 245.332 31.9867 245.332 32.52ZM272.587 38.8C272.321 38.96 271.841 39.12 271.147 39.28C270.454 39.4667 269.547 39.56 268.427 39.56C267.654 39.56 266.841 39.4533 265.987 39.24C265.134 39.0533 264.334 38.68 263.587 38.12C262.867 37.56 262.267 36.7733 261.787 35.76C261.307 34.7467 261.067 33.4133 261.067 31.76V22.84H259.027L259.467 18.4H261.227L261.467 15.88L268.787 12H269.827V18.4H271.867V22.84H269.707V29.84C269.707 30.7467 269.867 31.4533 270.187 31.96C270.534 32.4667 271.121 32.72 271.947 32.72C272.054 32.72 272.161 32.72 272.267 32.72C272.374 32.72 272.481 32.7067 272.587 32.68V38.8Z" fill="black"/>
<path d="M25.52 71V42.68H36.08V62.2H46.8V71H25.52ZM61.8484 71L61.4084 69.08C60.7418 70.0133 59.9018 70.6533 58.8884 71C57.8751 71.3733 56.7684 71.56 55.5684 71.56C54.5018 71.56 53.5551 71.3733 52.7284 71C51.9284 70.6533 51.2484 70.16 50.6884 69.52C50.1284 68.8533 49.7018 68.08 49.4084 67.2C49.1418 66.32 49.0084 65.36 49.0084 64.32C49.0084 63.36 49.1951 62.48 49.5684 61.68C49.9684 60.88 50.5018 60.2 51.1684 59.64C51.8351 59.0533 52.5951 58.6 53.4484 58.28C54.3018 57.96 55.1951 57.8 56.1284 57.8C57.0618 57.8 57.9151 57.9467 58.6884 58.24C59.4618 58.5067 60.1551 58.9467 60.7684 59.56C60.7684 58.5733 60.5284 57.76 60.0484 57.12C59.5951 56.48 58.8084 56.16 57.6884 56.16H51.7284V50.4H58.2884C60.3418 50.4 62.0618 50.6533 63.4484 51.16C64.8351 51.6667 65.9418 52.4267 66.7684 53.44C67.5951 54.4267 68.1818 55.6533 68.5284 57.12C68.8751 58.56 69.0484 60.2133 69.0484 62.08V71H61.8484ZM57.1284 64.52C57.1284 65.0533 57.3018 65.52 57.6484 65.92C57.9951 66.2933 58.4618 66.48 59.0484 66.48C59.5818 66.48 60.0351 66.2933 60.4084 65.92C60.8084 65.52 61.0084 65.0533 61.0084 64.52C61.0084 63.9867 60.8084 63.5333 60.4084 63.16C60.0351 62.76 59.5818 62.56 59.0484 62.56C58.5151 62.56 58.0618 62.76 57.6884 63.16C57.3151 63.5333 57.1284 63.9867 57.1284 64.52ZM77.0731 70.76C77.3131 70.8133 77.7265 70.8667 78.3131 70.92C78.9265 70.9733 79.7665 71 80.8331 71C81.3398 71 81.8065 70.96 82.2331 70.88C82.6598 70.8 83.0331 70.6533 83.3531 70.44C83.6731 70.2267 83.9265 69.9467 84.1131 69.6C84.2998 69.2267 84.3931 68.7467 84.3931 68.16V67.72C83.8331 68.36 83.1398 68.8 82.3131 69.04C81.4865 69.2533 80.6065 69.36 79.6731 69.36C78.5531 69.36 77.4998 69.1467 76.5131 68.72C75.5265 68.2933 74.6598 67.6933 73.9131 66.92C73.1665 66.1467 72.5665 65.2133 72.1131 64.12C71.6865 63 71.4731 61.76 71.4731 60.4C71.4731 58.7467 71.7265 57.2667 72.2331 55.96C72.7665 54.6533 73.4998 53.5467 74.4331 52.64C75.3931 51.7333 76.5131 51.04 77.7931 50.56C79.0998 50.08 80.5398 49.84 82.1131 49.84C83.3931 49.84 84.5931 50.0933 85.7131 50.6C86.8598 51.08 87.8598 51.7067 88.7131 52.48L91.9931 50.4H93.0731V67.76C93.0731 69.92 92.7131 71.6933 91.9931 73.08C91.2731 74.4667 90.3398 75.5467 89.1931 76.32C88.0731 77.0933 86.8065 77.6267 85.3931 77.92C84.0065 78.2133 82.6465 78.36 81.3131 78.36C80.5931 78.36 80.0065 78.3467 79.5531 78.32C79.0998 78.2933 78.7131 78.2533 78.3931 78.2C78.0998 78.1733 77.8465 78.1333 77.6331 78.08C77.4465 78.0533 77.2598 78.0133 77.0731 77.96V70.76ZM82.3931 62.56C83.1398 62.56 83.7265 62.2533 84.1531 61.64C84.6065 61 84.8331 60.24 84.8331 59.36C84.8331 58.48 84.6065 57.7333 84.1531 57.12C83.7265 56.48 83.1398 56.16 82.3931 56.16C81.6198 56.16 81.0198 56.48 80.5931 57.12C80.1931 57.7333 79.9931 58.48 79.9931 59.36C79.9931 60.24 80.1931 61 80.5931 61.64C81.0198 62.2533 81.6198 62.56 82.3931 62.56ZM108.76 71L108.12 69.64C107.586 70.2533 106.933 70.72 106.16 71.04C105.386 71.3867 104.4 71.56 103.2 71.56C102.453 71.56 101.706 71.44 100.96 71.2C100.213 70.96 99.533 70.5733 98.9197 70.04C98.333 69.5067 97.853 68.8 97.4797 67.92C97.1064 67.04 96.9197 65.9733 96.9197 64.72V50.4H105.36V62C105.36 62.6933 105.466 63.2933 105.68 63.8C105.92 64.28 106.36 64.52 107 64.52C107.16 64.52 107.333 64.48 107.52 64.4C107.733 64.2933 107.906 64.1333 108.04 63.92V50.4H116.72V71H108.76ZM132.629 71V42.68H146.989C148.963 42.68 150.803 42.8933 152.509 43.32C154.243 43.7467 155.736 44.4667 156.989 45.48C158.269 46.4667 159.269 47.7867 159.989 49.44C160.736 51.0667 161.109 53.0933 161.109 55.52C161.109 57.8933 160.683 60.04 159.829 61.96C159.003 63.8533 157.843 65.4667 156.349 66.8C154.883 68.1333 153.123 69.1733 151.069 69.92C149.016 70.64 146.776 71 144.349 71H132.629ZM144.949 61.84C146.709 61.84 148.136 61.36 149.229 60.4C150.323 59.44 150.869 57.9467 150.869 55.92C150.869 55.3867 150.803 54.84 150.669 54.28C150.536 53.72 150.309 53.2133 149.989 52.76C149.669 52.3067 149.229 51.9333 148.669 51.64C148.136 51.3467 147.456 51.2 146.629 51.2H143.109V61.84H144.949ZM175.286 71L174.846 69.08C174.179 70.0133 173.339 70.6533 172.326 71C171.313 71.3733 170.206 71.56 169.006 71.56C167.939 71.56 166.993 71.3733 166.166 71C165.366 70.6533 164.686 70.16 164.126 69.52C163.566 68.8533 163.139 68.08 162.846 67.2C162.579 66.32 162.446 65.36 162.446 64.32C162.446 63.36 162.633 62.48 163.006 61.68C163.406 60.88 163.939 60.2 164.606 59.64C165.273 59.0533 166.033 58.6 166.886 58.28C167.739 57.96 168.633 57.8 169.566 57.8C170.499 57.8 171.353 57.9467 172.126 58.24C172.899 58.5067 173.593 58.9467 174.206 59.56C174.206 58.5733 173.966 57.76 173.486 57.12C173.033 56.48 172.246 56.16 171.126 56.16H165.166V50.4H171.726C173.779 50.4 175.499 50.6533 176.886 51.16C178.273 51.6667 179.379 52.4267 180.206 53.44C181.033 54.4267 181.619 55.6533 181.966 57.12C182.313 58.56 182.486 60.2133 182.486 62.08V71H175.286ZM170.566 64.52C170.566 65.0533 170.739 65.52 171.086 65.92C171.433 66.2933 171.899 66.48 172.486 66.48C173.019 66.48 173.473 66.2933 173.846 65.92C174.246 65.52 174.446 65.0533 174.446 64.52C174.446 63.9867 174.246 63.5333 173.846 63.16C173.473 62.76 173.019 62.56 172.486 62.56C171.953 62.56 171.499 62.76 171.126 63.16C170.753 63.5333 170.566 63.9867 170.566 64.52ZM194.751 62.8C194.964 63.3333 195.271 63.7333 195.671 64C196.097 64.24 196.577 64.36 197.111 64.36C197.804 64.36 198.417 64.1333 198.951 63.68C199.484 63.2267 199.817 62.6533 199.951 61.96L207.071 64.4C206.697 65.5733 206.151 66.6133 205.431 67.52C204.711 68.4 203.857 69.1467 202.871 69.76C201.911 70.3733 200.844 70.8267 199.671 71.12C198.497 71.44 197.284 71.6 196.031 71.6C194.431 71.6 192.951 71.32 191.591 70.76C190.257 70.1733 189.097 69.3733 188.111 68.36C187.151 67.3467 186.391 66.16 185.831 64.8C185.297 63.4133 185.031 61.9333 185.031 60.36C185.031 58.76 185.324 57.3067 185.911 56C186.497 54.6933 187.297 53.5867 188.311 52.68C189.351 51.7733 190.551 51.08 191.911 50.6C193.271 50.0933 194.724 49.84 196.271 49.84C199.337 49.84 201.737 50.6533 203.471 52.28C205.231 53.9067 206.311 56.2133 206.711 59.2L194.751 62.8ZM197.831 57.2C197.644 56.8 197.377 56.48 197.031 56.24C196.684 55.9733 196.257 55.84 195.751 55.84C195.004 55.84 194.391 56.0667 193.911 56.52C193.457 56.9733 193.231 57.64 193.231 58.52C193.231 58.7067 193.257 58.8533 193.311 58.96L197.831 57.2ZM210.202 71V50.4H218.042L218.722 53.08C219.282 52.0667 220.029 51.28 220.962 50.72C221.895 50.1333 222.935 49.84 224.082 49.84C224.882 49.84 225.549 49.96 226.082 50.2C226.642 50.4133 227.095 50.7333 227.442 51.16C227.815 51.56 228.095 52.04 228.282 52.6C228.469 53.16 228.602 53.7733 228.682 54.44L221.442 58.16C221.335 57.7867 221.175 57.48 220.962 57.24C220.749 57 220.442 56.88 220.042 56.88C219.829 56.88 219.615 56.92 219.402 57C219.189 57.08 219.015 57.2267 218.882 57.44V71H210.202ZM240.755 71L240.315 69.08C239.648 70.0133 238.808 70.6533 237.795 71C236.781 71.3733 235.675 71.56 234.475 71.56C233.408 71.56 232.461 71.3733 231.635 71C230.835 70.6533 230.155 70.16 229.595 69.52C229.035 68.8533 228.608 68.08 228.315 67.2C228.048 66.32 227.915 65.36 227.915 64.32C227.915 63.36 228.101 62.48 228.475 61.68C228.875 60.88 229.408 60.2 230.075 59.64C230.741 59.0533 231.501 58.6 232.355 58.28C233.208 57.96 234.101 57.8 235.035 57.8C235.968 57.8 236.821 57.9467 237.595 58.24C238.368 58.5067 239.061 58.9467 239.675 59.56C239.675 58.5733 239.435 57.76 238.955 57.12C238.501 56.48 237.715 56.16 236.595 56.16H230.635V50.4H237.195C239.248 50.4 240.968 50.6533 242.355 51.16C243.741 51.6667 244.848 52.4267 245.675 53.44C246.501 54.4267 247.088 55.6533 247.435 57.12C247.781 58.56 247.955 60.2133 247.955 62.08V71H240.755ZM236.035 64.52C236.035 65.0533 236.208 65.52 236.555 65.92C236.901 66.2933 237.368 66.48 237.955 66.48C238.488 66.48 238.941 66.2933 239.315 65.92C239.715 65.52 239.915 65.0533 239.915 64.52C239.915 63.9867 239.715 63.5333 239.315 63.16C238.941 62.76 238.488 62.56 237.955 62.56C237.421 62.56 236.968 62.76 236.595 63.16C236.221 63.5333 236.035 63.9867 236.035 64.52ZM262.97 71V59.4C262.97 58.7067 262.85 58.12 262.61 57.64C262.397 57.1333 261.97 56.88 261.33 56.88C261.17 56.88 260.983 56.92 260.77 57C260.583 57.08 260.423 57.2267 260.29 57.44V71H251.61V42.12H260.29V51.32C260.877 50.8667 261.517 50.5067 262.21 50.24C262.903 49.9733 263.73 49.84 264.69 49.84C265.517 49.84 266.33 49.9867 267.13 50.28C267.957 50.5467 268.677 50.96 269.29 51.52C269.93 52.08 270.437 52.7867 270.81 53.64C271.21 54.4933 271.41 55.4933 271.41 56.64V71H262.97Z" fill="black"/>
<path d="M293.28 53.48C292.14 54.38 290.98 55.05 289.8 55.49C288.64 55.91 287.34 56.17 285.9 56.27C284.72 56.37 283.56 56.34 282.42 56.18C281.28 56.04 280.25 55.73 279.33 55.25C278.41 54.75 277.65 54.06 277.05 53.18C276.45 52.3 276.1 51.18 276 49.82C275.94 48.94 276.03 48.13 276.27 47.39C276.51 46.65 276.87 46 277.35 45.44C277.83 44.86 278.4 44.37 279.06 43.97C279.72 43.57 280.44 43.26 281.22 43.04C280.48 42.46 279.88 41.82 279.42 41.12C278.98 40.42 278.72 39.59 278.64 38.63C278.54 37.45 278.72 36.42 279.18 35.54C279.64 34.66 280.26 33.93 281.04 33.35C281.84 32.75 282.74 32.29 283.74 31.97C284.76 31.63 285.78 31.42 286.8 31.34C287.76 31.26 288.76 31.3 289.8 31.46C290.86 31.6 291.83 31.89 292.71 32.33C293.61 32.75 294.36 33.34 294.96 34.1C295.58 34.86 295.94 35.8 296.04 36.92C296.1 37.62 296.04 38.32 295.86 39.02C295.68 39.7 295.4 40.34 295.02 40.94C294.66 41.54 294.21 42.08 293.67 42.56C293.15 43.02 292.57 43.37 291.93 43.61L294.27 45.65C294.97 45.11 295.58 44.5 296.1 43.82C296.62 43.12 297.14 42.42 297.66 41.72L302.61 46.49L299.1 49.64L301.68 51.65L295.29 56.15L293.28 53.48ZM286.38 38.18C286.4 38.52 286.55 38.87 286.83 39.23C287.11 39.57 287.4 39.81 287.7 39.95C287.88 39.83 288.06 39.7 288.24 39.56C288.42 39.4 288.58 39.23 288.72 39.05C288.88 38.85 289 38.65 289.08 38.45C289.16 38.23 289.19 38.01 289.17 37.79C289.15 37.45 289 37.14 288.72 36.86C288.44 36.58 288.12 36.46 287.76 36.5C287.32 36.54 286.97 36.72 286.71 37.04C286.45 37.36 286.34 37.74 286.38 38.18ZM285.09 46.67C284.77 46.91 284.47 47.18 284.19 47.48C283.91 47.78 283.79 48.16 283.83 48.62C283.87 49.24 284.11 49.68 284.55 49.94C285.01 50.2 285.53 50.3 286.11 50.24C286.57 50.2 286.96 50.11 287.28 49.97C287.62 49.81 287.98 49.63 288.36 49.43L285.09 46.67Z" fill="black"/>
<path d="M87.52 95.9V91.68H90.06C90.5267 91.68 90.9 91.5133 91.18 91.18C91.46 90.8333 91.6 90.3733 91.6 89.8V81.74H96.6V89.8C96.6 90.8666 96.4533 91.7866 96.16 92.56C95.8667 93.3333 95.44 93.9666 94.88 94.46C94.3333 94.9533 93.6533 95.32 92.84 95.56C92.0267 95.7866 91.1 95.9 90.06 95.9H87.52ZM104.159 95.9L103.939 94.94C103.605 95.4066 103.185 95.7266 102.679 95.9C102.172 96.0866 101.619 96.18 101.019 96.18C100.485 96.18 100.012 96.0866 99.5986 95.9C99.1986 95.7266 98.8586 95.48 98.5786 95.16C98.2986 94.8266 98.0853 94.44 97.9386 94C97.8053 93.56 97.7386 93.08 97.7386 92.56C97.7386 92.08 97.8319 91.64 98.0186 91.24C98.2186 90.84 98.4853 90.5 98.8186 90.22C99.1519 89.9266 99.5319 89.7 99.9586 89.54C100.385 89.38 100.832 89.3 101.299 89.3C101.765 89.3 102.192 89.3733 102.579 89.52C102.965 89.6533 103.312 89.8733 103.619 90.18C103.619 89.6866 103.499 89.28 103.259 88.96C103.032 88.64 102.639 88.48 102.079 88.48H99.0986V85.6H102.379C103.405 85.6 104.265 85.7266 104.959 85.98C105.652 86.2333 106.205 86.6133 106.619 87.12C107.032 87.6133 107.325 88.2266 107.499 88.96C107.672 89.68 107.759 90.5066 107.759 91.44V95.9H104.159ZM101.799 92.66C101.799 92.9266 101.885 93.16 102.059 93.36C102.232 93.5466 102.465 93.64 102.759 93.64C103.025 93.64 103.252 93.5466 103.439 93.36C103.639 93.16 103.739 92.9266 103.739 92.66C103.739 92.3933 103.639 92.1666 103.439 91.98C103.252 91.78 103.025 91.68 102.759 91.68C102.492 91.68 102.265 91.78 102.079 91.98C101.892 92.1666 101.799 92.3933 101.799 92.66ZM117.695 95.9L115.255 91.46L112.835 95.9H112.135L107.435 85.6H112.035L113.375 88.8L115.015 85.6H115.675L117.295 88.8L118.635 85.6H123.095L118.395 95.9H117.695ZM129.1 95.9L128.88 94.94C128.547 95.4066 128.127 95.7266 127.62 95.9C127.113 96.0866 126.56 96.18 125.96 96.18C125.427 96.18 124.953 96.0866 124.54 95.9C124.14 95.7266 123.8 95.48 123.52 95.16C123.24 94.8266 123.027 94.44 122.88 94C122.747 93.56 122.68 93.08 122.68 92.56C122.68 92.08 122.773 91.64 122.96 91.24C123.16 90.84 123.427 90.5 123.76 90.22C124.093 89.9266 124.473 89.7 124.9 89.54C125.327 89.38 125.773 89.3 126.24 89.3C126.707 89.3 127.133 89.3733 127.52 89.52C127.907 89.6533 128.253 89.8733 128.56 90.18C128.56 89.6866 128.44 89.28 128.2 88.96C127.973 88.64 127.58 88.48 127.02 88.48H124.04V85.6H127.32C128.347 85.6 129.207 85.7266 129.9 85.98C130.593 86.2333 131.147 86.6133 131.56 87.12C131.973 87.6133 132.267 88.2266 132.44 88.96C132.613 89.68 132.7 90.5066 132.7 91.44V95.9H129.1ZM126.74 92.66C126.74 92.9266 126.827 93.16 127 93.36C127.173 93.5466 127.407 93.64 127.7 93.64C127.967 93.64 128.193 93.5466 128.38 93.36C128.58 93.16 128.68 92.9266 128.68 92.66C128.68 92.3933 128.58 92.1666 128.38 91.98C128.193 91.78 127.967 91.68 127.7 91.68C127.433 91.68 127.207 91.78 127.02 91.98C126.833 92.1666 126.74 92.3933 126.74 92.66ZM144.207 95.9V85.9H139.707V81.74H154.027V85.9H149.527V95.9H144.207ZM157.875 91.8C157.982 92.0666 158.135 92.2666 158.335 92.4C158.549 92.52 158.789 92.58 159.055 92.58C159.402 92.58 159.709 92.4666 159.975 92.24C160.242 92.0133 160.409 91.7266 160.475 91.38L164.035 92.6C163.849 93.1866 163.575 93.7066 163.215 94.16C162.855 94.6 162.429 94.9733 161.935 95.28C161.455 95.5866 160.922 95.8133 160.335 95.96C159.749 96.12 159.142 96.2 158.515 96.2C157.715 96.2 156.975 96.06 156.295 95.78C155.629 95.4866 155.049 95.0866 154.555 94.58C154.075 94.0733 153.695 93.48 153.415 92.8C153.149 92.1066 153.015 91.3666 153.015 90.58C153.015 89.78 153.162 89.0533 153.455 88.4C153.749 87.7466 154.149 87.1933 154.655 86.74C155.175 86.2866 155.775 85.94 156.455 85.7C157.135 85.4466 157.862 85.32 158.635 85.32C160.169 85.32 161.369 85.7266 162.235 86.54C163.115 87.3533 163.655 88.5066 163.855 90L157.875 91.8ZM159.415 89C159.322 88.8 159.189 88.64 159.015 88.52C158.842 88.3866 158.629 88.32 158.375 88.32C158.002 88.32 157.695 88.4333 157.455 88.66C157.229 88.8866 157.115 89.22 157.115 89.66C157.115 89.7533 157.129 89.8266 157.155 89.88L159.415 89ZM171.281 95.9V90.1C171.281 89.7533 171.221 89.46 171.101 89.22C170.994 88.9666 170.781 88.84 170.461 88.84C170.381 88.84 170.288 88.86 170.181 88.9C170.088 88.94 170.008 89.0133 169.941 89.12V95.9H165.601V85.6H169.581L169.921 86.28C170.174 85.9733 170.494 85.74 170.881 85.58C171.268 85.4066 171.761 85.32 172.361 85.32C172.734 85.32 173.108 85.38 173.481 85.5C173.854 85.62 174.188 85.8133 174.481 86.08C174.788 86.3466 175.034 86.7 175.221 87.14C175.421 87.5666 175.521 88.0933 175.521 88.72V95.9H171.281ZM179.857 95.78C179.977 95.8066 180.184 95.8333 180.477 95.86C180.784 95.8866 181.204 95.9 181.737 95.9C181.99 95.9 182.224 95.88 182.437 95.84C182.65 95.8 182.837 95.7266 182.997 95.62C183.157 95.5133 183.284 95.3733 183.377 95.2C183.47 95.0133 183.517 94.7733 183.517 94.48V94.26C183.237 94.58 182.89 94.8 182.477 94.92C182.064 95.0266 181.624 95.08 181.157 95.08C180.597 95.08 180.07 94.9733 179.577 94.76C179.084 94.5466 178.65 94.2466 178.277 93.86C177.904 93.4733 177.604 93.0066 177.377 92.46C177.164 91.9 177.057 91.28 177.057 90.6C177.057 89.7733 177.184 89.0333 177.437 88.38C177.704 87.7266 178.07 87.1733 178.537 86.72C179.017 86.2666 179.577 85.92 180.217 85.68C180.87 85.44 181.59 85.32 182.377 85.32C183.017 85.32 183.617 85.4466 184.177 85.7C184.75 85.94 185.25 86.2533 185.677 86.64L187.317 85.6H187.857V94.28C187.857 95.36 187.677 96.2466 187.317 96.94C186.957 97.6333 186.49 98.1733 185.917 98.56C185.357 98.9466 184.724 99.2133 184.017 99.36C183.324 99.5066 182.644 99.58 181.977 99.58C181.617 99.58 181.324 99.5733 181.097 99.56C180.87 99.5466 180.677 99.5266 180.517 99.5C180.37 99.4866 180.244 99.4666 180.137 99.44C180.044 99.4266 179.95 99.4066 179.857 99.38V95.78ZM182.517 91.68C182.89 91.68 183.184 91.5266 183.397 91.22C183.624 90.9 183.737 90.52 183.737 90.08C183.737 89.64 183.624 89.2666 183.397 88.96C183.184 88.64 182.89 88.48 182.517 88.48C182.13 88.48 181.83 88.64 181.617 88.96C181.417 89.2666 181.317 89.64 181.317 90.08C181.317 90.52 181.417 90.9 181.617 91.22C181.83 91.5266 182.13 91.68 182.517 91.68ZM195.565 95.9L195.345 94.94C195.012 95.4066 194.592 95.7266 194.085 95.9C193.578 96.0866 193.025 96.18 192.425 96.18C191.892 96.18 191.418 96.0866 191.005 95.9C190.605 95.7266 190.265 95.48 189.985 95.16C189.705 94.8266 189.492 94.44 189.345 94C189.212 93.56 189.145 93.08 189.145 92.56C189.145 92.08 189.238 91.64 189.425 91.24C189.625 90.84 189.892 90.5 190.225 90.22C190.558 89.9266 190.938 89.7 191.365 89.54C191.792 89.38 192.238 89.3 192.705 89.3C193.172 89.3 193.598 89.3733 193.985 89.52C194.372 89.6533 194.718 89.8733 195.025 90.18C195.025 89.6866 194.905 89.28 194.665 88.96C194.438 88.64 194.045 88.48 193.485 88.48H190.505V85.6H193.785C194.812 85.6 195.672 85.7266 196.365 85.98C197.058 86.2333 197.612 86.6133 198.025 87.12C198.438 87.6133 198.732 88.2266 198.905 88.96C199.078 89.68 199.165 90.5066 199.165 91.44V95.9H195.565ZM193.205 92.66C193.205 92.9266 193.292 93.16 193.465 93.36C193.638 93.5466 193.872 93.64 194.165 93.64C194.432 93.64 194.658 93.5466 194.845 93.36C195.045 93.16 195.145 92.9266 195.145 92.66C195.145 92.3933 195.045 92.1666 194.845 91.98C194.658 91.78 194.432 91.68 194.165 91.68C193.898 91.68 193.672 91.78 193.485 91.98C193.298 92.1666 193.205 92.3933 193.205 92.66ZM206.673 95.9V90.1C206.673 89.7533 206.613 89.46 206.493 89.22C206.386 88.9666 206.173 88.84 205.853 88.84C205.773 88.84 205.679 88.86 205.573 88.9C205.479 88.94 205.399 89.0133 205.333 89.12V95.9H200.993V81.46H205.333V86.06C205.626 85.8333 205.946 85.6533 206.293 85.52C206.639 85.3866 207.053 85.32 207.533 85.32C207.946 85.32 208.353 85.3933 208.753 85.54C209.166 85.6733 209.526 85.88 209.833 86.16C210.153 86.44 210.406 86.7933 210.593 87.22C210.793 87.6466 210.893 88.1466 210.893 88.72V95.9H206.673Z" fill="black"/>
</svg>
